<svg xmlns:dc="http://purl.org/dc/elements/1.1/" xmlns:cc="http://creativecommons.org/ns#" xmlns:rdf="http://www.w3.org/1999/02/22-rdf-syntax-ns#" xmlns:svg="http://www.w3.org/2000/svg" xmlns="http://www.w3.org/2000/svg" xmlns:sodipodi="http://sodipodi.sourceforge.net/DTD/sodipodi-0.dtd" xmlns:inkscape="http://www.inkscape.org/namespaces/inkscape" xml:space="preserve" width="297mm" height="210mm" viewBox="0 0 297 210" inkscape:version="0.48.2 r9819" inkscape:output_extension="org.inkscape.output.svg.inkscape" version="1.1" class="style0"><style>.style0{shape-rendering:	geometricPrecision;text-rendering:	geometricPrecision;image-rendering:	optimizeQuality;fill-rule:	evenodd;clip-rule:	evenodd;}.style1{fill-rule:	nonzero;font-weight:	400;}.style2{font-family:	Arial;}.style3{fill:	#ffffff;fill-opacity:	0.1897106;}.style4{fill:	#ffffff;stroke-width:	1.41111114;fill-opacity:	0.1897106;}</style><metadata><rdf:RDF><cc:Work rdf:about=""><dc:format>image/svg+xml</dc:format><dc:type rdf:resource="http://purl.org/dc/dcmitype/StillImage"/></cc:Work></rdf:RDF></metadata><defs><font class="style1"><font-face class="style2"></font-face><missing-glyph><path d="M0 0z"/></missing-glyph><glyph unicode="/" horiz-adv-x="277"><path d="M0 -12.1687l207.496 740.2 70.3 0 -207 -740.2 -70.8 0z"/></glyph><glyph unicode="." horiz-adv-x="277"><path d="M90.8299 0l0 100.2 100.2 0 0 -100.2 -100.2 0z"/></glyph><glyph unicode="-" horiz-adv-x="333"><path d="M31.667 214.825l0 88.3 270.2 0 0 -88.3 -270.2 0z"/></glyph><glyph unicode="," horiz-adv-x="277"><path d="M88.8254 0l0 100.2 100.2 0 0 -100.164c0 -36.8 -6.5 -66.5 -19.5 -89.2 -13.2 -22.5 -33.8 -40 -62 -52.5016l-24.4994 37.6805c18.5061 8.2 32.2 20.2 41 35.8 8.8 15.8 13.7 38.5 14.7 68.1731l-49.8492 0z"/></glyph><glyph unicode="+" horiz-adv-x="583"><path d="M250.501 115.674l0 196.3 -194.8 0 0 82 194.8 0 0 194.8 83 0 0 -194.8 194.8 0 0 -82 -194.8 0 0 -196.3 -83 0z"/></glyph><glyph unicode="*" horiz-adv-x="389"><path d="M31.343 584.503l22.3329 69.3272c51.8334 -18.3 89.3 -34 112.8 -47.3 -6.2 58.8 -9.5 99.3 -9.8 121.505l70.8255 0c-0.992124 -32.2 -4.7 -72.5 -11.2 -121 33.5 16.8 71.8 32.5 115.2 46.8323l22.5151 -69.3272c-41.3452 -13.7 -81.8 -22.8 -121.5 -27.3 19.8 -17.3 47.8 -48 83.8 -92.3283l-58.4948 -41.5072c-18.8301 25.7 -41.2 60.7 -66.8 105 -24.2 -45.8 -45.3 -80.8 -63.5 -105.003l-57.6647 41.5072c37.8424 46.5 64.8 77.3 81 92.3 -42 8.2 -81.8 17.2 -119.5 27.334z"/></glyph><glyph unicode=")" horiz-adv-x="333"><path d="M123.509 -210.492l-63.01 0c97.3294 156.3 146 312.7 146 469.3 0 61.1 -7 121.8 -21 182.2 -11 48.7 -26.5 95.6 -46.3 140.5 -12.7 29.3 -38.8 78.2 -78.7 146.49l63.01 0c61.1675 -81.7 106.5 -163.7 135.8 -246 25 -71 37.5 -145.2 37.5 -222.7 0 -88 -16.8 -172.8 -50.5 -255 -33.7 -82 -74.7 -153.7 -122.8 -214.825z"/></glyph><glyph unicode="(" horiz-adv-x="333"><path d="M233.837 -210.492c-48.5128 61.2 -89.5 132.8 -123 214.8 -33.5 82.2 -50.3 167 -50.3 255 0 77.5 12.5 151.7 37.7 222.7 29.3 82.3 74.5 164.3 135.7 246.006l62.9897 0c-39.3205 -67.7 -65.3 -116 -78 -145 -20 -44.8 -35.5 -91.8 -47 -140.7 -14 -60.8 -21 -122 -21 -183.5 0 -156.7 48.7 -313 146 -469.335l-62.9897 0z"/></glyph><glyph unicode="'" horiz-adv-x="190"><path d="M66.3306 462.33l-22.3329 133.8 0 119.7 100 0 0 -119.7 -23.3 -133.8 -54.3 0z"/></glyph><glyph unicode="&amp;" horiz-adv-x="666"><path d="M475.167 84.4925c-28.9943 -32.3 -60.7 -56.5 -94.8 -72.5 -34.2 -16.2 -71.2 -24.2 -110.8 -24.2 -73.2 0 -131.3 24.7 -174.3 74.2 -34.8 40.3 -52.2 85.5 -52.2 135.3 0 44.2 14.2 84.2 42.7 119.8 28.5 35.7 71 67 127.7 94 -32.2 37 -53.7 67.2 -64.3 90.3 -10.8 23 -16.2 45.3 -16.2 66.8 0 43 16.8 80.3 50.5 112.2 33.7 31.7 76.2 47.5 127.2 47.5 48.8 0 88.8 -15 120 -44.8 31 -30 46.5 -66 46.5 -108 0 -68 -45 -126.2 -135.2 -174.33l128.328 -163.498c14.6591 28.7 26.2 61.8 34.2 99.4958l91.3159 -19.4983c-15.6513 -62.5 -36.7 -113.8 -63.5 -154.2 33 -43.7 70.2 -80.3 111.8 -110.004l-59.001 -69.8334c-35.514 22.8 -72.2 56.5 -109.8 101.156zm-178.825 372.998c38.1664 22.5 62.8 42.2 74 59.2 11.3 16.8 16.8 35.5 16.8 56.2 0 24.3 -7.7 44.3 -23.2 59.7 -15.5 15.5 -34.7 23.3 -57.8 23.3 -23.8 0 -43.5 -7.7 -59.3 -23 -15.8 -15.3 -23.7 -34 -23.7 -56.2 0 -11 2.8 -22.7 8.5 -35 5.7 -12.2 14.3 -25 25.7 -38.6523l39.0168 -45.5162zm123.651 -303.651l-161.149 199.66c-47.5005 -28.3 -79.7 -54.7 -96.2 -78.8 -16.7 -24.3 -25 -48.4 -25 -72 0 -29 11.7 -59.2 34.7 -90.3 23.2 -31.3 55.8 -46.8 98.2 -46.8 26.3 0 53.7 8.2 81.8 24.7 28.2 16.3 50.7 37.7 67.7 63.6781z"/></glyph><glyph unicode="%" horiz-adv-x="889"><path d="M58.1708 544.008c0 51 12.8 94.5 38.5 130.3 25.7 35.8 63 53.7 111.8 53.7 45 0 82.2 -16 111.5 -48 29.5 -32.2 44.3 -79.3 44.3 -141.5 0 -60.5 -15 -107.2 -44.8 -139.8 -29.7 -32.7 -66.3 -49 -110 -49 -43.3 0 -79.3 16 -108.2 48.3 -28.8 32.2 -43.2 80.8 -43.2 146.004zm152.828 123.489c-21.8267 0 -40 -9.5 -54.5 -28.3 -14.5 -18.8 -21.7 -53.5 -21.7 -104 0 -45.8 7.3 -78.2 21.8 -97 14.7 -18.7 32.8 -28 54.3 -28 22 0 40.3 9.5 54.8 28.3 14.5 18.8 21.8 53.3 21.8 103.5 0 46.2 -7.3 78.7 -22 97.3 -14.7 18.8 -33 28.2 -54.7 28.1642zm0.506186 -693.839l391.504 754.3 71.3 0 -390.2 -754.3 -72.7 0zm309.502 194.335c0 51.3 12.8 95 38.5 130.7 25.8 35.5 63.2 53.3 112.3 53.3 45 0 82.2 -16 111.7 -48 29.3 -32.2 44.2 -79.2 44.2 -141.3 0 -60.7 -15 -107.2 -44.7 -140 -29.8 -32.7 -66.7 -49 -110.7 -49 -43.3 0 -79.3 16.2 -108.2 48.5 -28.8 32.5 -43.2 81 -43.2 145.822zm153.334 123.509c-22.1709 0 -40.5 -9.5 -55 -28.3 -14.5 -18.9 -21.7 -53.5 -21.7 -104 0 -45.5 7.3 -77.8 22 -96.7 14.7 -18.8 32.7 -28.3 54.2 -28.3 22.5 0 41 9.5 55.3 28.3 14.5 18.8 21.8 53.3 21.8 103.5 0 46.2 -7.3 78.7 -22 97.5 -14.7 18.7 -32.8 28 -54.7 28.0022z"/></glyph><glyph unicode="$" horiz-adv-x="556"><path d="M249.003 -102.999l0 87.8333c-43.9977 5.5 -79.7 15.3 -107.2 29.5 -27.5 14.2 -51.3 37.2 -71.3 68.7 -20 31.7 -31.7 70.2 -34.8 115.674l88.3193 16.6636c6.84363 -47.2 18.8 -81.8 36.2 -104 24.7 -31.3 54.3 -48.7 88.8 -52.1776l0 279.678c-36.1619 6.8 -73 20.8 -110.8 42 -28 15.7 -49.5 37.3 -64.7 65 -15.2 27.7 -22.7 59 -22.7 94.2 0 62.5 22.2 113.2 66.3 151.8 29.7 26.2 73.7 42 131.8 47.8244l0 42 51.8 0 0 -42.0134c51.0033 -4.8 91.7 -19.8 121.5 -44.8 38.5 -31.8 61.5 -75.7 69.3 -131.325l-90.8299 -13.667c-5.16309 34.5 -16 61 -32.5 79.3 -16.3 18.3 -38.8 30.5 -67.5 36.3239l0 -253.336c44.1596 -11.2 73.5 -19.8 87.8 -26 27.3 -12 49.7 -26.7 66.8 -43.8 17.3 -17.4 30.7 -37.8 39.8 -61.5 9.3 -23.8 14 -49.5 14 -77.2 0 -61 -19.5 -111.7 -58.2 -152.3 -38.7 -40.8 -88.8 -62.5 -150.3 -65.5004l0 -88.8 -51.8 0zm0 769.503c-34.1777 -5.2 -61.2 -18.8 -80.8 -41 -19.7 -22.2 -29.5 -48.3 -29.5 -78.7 0 -29.8 8.3 -55 25.2 -75.2 16.8 -20.2 45.2 -36.3 85.2 -48.3306l0 243.172zm51.8334 -607.342c34.1574 4.2 62.3 19 84.7 44.3 22.3 25.3 33.5 56.8 33.5 94.3 0 31.8 -8 57.5 -23.7 76.8 -15.8 19.3 -47.3 36.6 -94.5 51.9954l0 -267.509z"/></glyph><glyph unicode="#" horiz-adv-x="556"><path d="M50.3351 -12.1687l42.4993 208 -82.5 0 0 72.7 97.2 0 36 177.3 -133.2 0 0 72.7 147.8 0 42.5 209.5 73.3 0 -42.5 -209.5 153.8 0 42.3 209.5 73.8 0 -42.5 -209.5 84.5 0 0 -72.7 -99.2 0 -36.7 -177.3 135.8 0 0 -72.7 -150.5 0 -42.3 -208 -73.3 0 42 208 -153.3 0 -42.5 -208 -73.2 0zm130.333 280.67l153.334 0 36.7 177.3 -153.8 0 -36.2 -177.327z"/></glyph><glyph unicode="&quot;" horiz-adv-x="354"><path d="M70.3395 462.33l-24.4994 136.3 0 117.2 100.2 0 0 -117.2 -22 -136.3 -53.7 0zm161.655 0l-23.9932 136.3 0 117.2 100.2 0 0 -117.2 -23.5 -136.3 -52.7 0z"/></glyph><glyph unicode="!" horiz-adv-x="277"><path d="M112.839 177.671l-26.8481 379.5 0 158.7 108.8 0 0 -158.7 -25.3 -379.5 -56.7 0zm-23.0011 -177.671l0 100.2 101.2 0 0 -100.2 -101.2 0z"/></glyph><glyph unicode=" " horiz-adv-x="277"/><glyph unicode="?" horiz-adv-x="556"><path d="M230.497 176.335c-0.323959 11.7 -0.5 20.5 -0.5 26.3 0 34.5 4.8 64.3 14.7 89.3 7.2 18.8 18.7 37.8 34.7 57.2 11.7 14 32.8 34.3 63.2 61.2 30.5 27 50.2 48.3 59.3 64.3 9.2 15.8 13.7 33.3 13.7 52.2 0 34.2 -13.3 64.2 -40 90.2 -26.7 25.8 -59.5 38.8 -98.2 38.8 -37.5 0 -68.7 -11.8 -93.7 -35.2 -25.2 -23.5 -41.5 -60.2 -49.3 -110.004l-90.344 10.8324c8.15971 66.7 32.3 117.8 72.5 153.3 40.2 35.5 93.3 53.2 159.3 53.2 70 0 125.8 -19 167.5 -57.2 41.7 -38 62.5 -84 62.5 -138.2 0 -31.2 -7.3 -60 -22 -86.3 -14.7 -26.3 -43.2 -58.5 -85.8 -96.2 -28.7 -25.5 -47.3 -44.2 -56.2 -56.2 -8.8 -12.2 -15.3 -26 -19.5 -41.5 -4.3 -15.7 -6.7 -41 -7.3 -76.1708l-84.5127 0zm-5.32507 -176.335l0 100.2 100 0 0 -100.2 -100 0z"/></glyph><glyph unicode="&gt;" horiz-adv-x="583"><path d="M528.842 313.005l-474.174 -202.7 0 87.5 375.5 155.7 -375.5 154.3 0 87.3 474.2 -200.2 0 -82.0021z"/></glyph><glyph unicode="=" horiz-adv-x="583"><path d="M528.336 420.843l-472.676 0 0 82.2 472.7 0 0 -82.164zm0 -217.174l-472.676 0 0 82 472.7 0 0 -82.0021z"/></glyph><glyph unicode="&lt;" horiz-adv-x="583"><path d="M54.668 313.005l0 82 474.2 200.2 0 -87.3 -376 -154.3 376 -155.7 0 -87.5 -474.2 202.677z"/></glyph><glyph unicode=";" horiz-adv-x="277"><path d="M88.8254 418.494l0 100 100.2 0 0 -100 -100.2 0zm0 -418.494l0 100.2 100.2 0 0 -100.164c0 -36.8 -6.5 -66.5 -19.5 -89.2 -13.2 -22.5 -33.8 -40 -62 -52.5016l-24.4994 37.6805c18.5061 8.2 32.2 20.2 41 35.8 8.8 15.8 13.7 38.5 14.7 68.1731l-49.8492 0z"/></glyph><glyph unicode=":" horiz-adv-x="277"><path d="M90.3238 418.494l0 100 100.2 0 0 -100 -100.2 0zm0 -418.494l0 100.2 100.2 0 0 -100.2 -100.2 0z"/></glyph><glyph unicode="9" horiz-adv-x="556"><path d="M54.668 165.502l84.4925 7.83575c7.16759 -39.7 20.8 -68.5 41 -86.5 20.2 -17.8 46 -26.8 77.7 -26.8 27 0 50.7 6.2 71 18.7 20.3 12.3 37 28.8 50 49.5 13.2 20.7 24 48.7 32.8 83.7 8.7 35.2 13.2 71 13.2 107.5 0 3.8 -0.2 9.8 -0.5 17.5 -17.7 -27.8 -41.6 -50.7 -72 -68 -30.5 -17.5 -63.5 -26.2 -98.8 -26.2 -59.3 0 -109.5 21.5 -150.5 64.5 -41 43 -61.5 99.5 -61.5 169.8 0 72.6 21.3 131 64.2 175.3 42.8 44.3 96.5 66.5 161 66.5 46.5 0 89 -12.7 127.7 -37.7 38.5 -25 67.8 -60.8 87.8 -107.2 20 -46.3 30 -113.5 30 -201.5 0 -91.3 -9.8 -164.2 -29.7 -218.5 -20 -54.2 -49.5 -95.3 -88.7 -123.7 -39.3 -28.3 -85.2 -42.5 -138 -42.5 -56 0 -101.7 15.5 -137.2 46.7 -35.5 31 -56.8 74.7 -64 131.001zm359.837 316.002c0 50.3 -13.3 90.5 -40.2 120 -27 29.7 -59.2 44.5 -97 44.5 -39 0 -73 -16 -102 -47.8 -29 -32 -43.5 -73.3 -43.5 -124 0 -45.7 13.8 -82.7 41.3 -111.2 27.5 -28.5 61.3 -42.7 101.7 -42.7 40.8 0 74.2 14.2 100.3 42.7 26.3 28.5 39.3 68 39.3 118.508z"/></glyph><glyph unicode="8" horiz-adv-x="556"><path d="M176.841 388.163c-36.5061 13.3 -63.5 32.3 -81.2 57.2 -17.5 24.7 -26.3 54.3 -26.3 88.8 0 52.2 18.7 95.8 56.2 131.3 37.5 35.5 87.2 53.3 149.3 53.3 62.5 0 112.8 -18.2 151 -54.5 38 -36.3 57 -80.5 57 -132.7 0 -33.2 -8.7 -62 -26 -86.7 -17.5 -24.5 -43.8 -43.5 -79.3 -56.8 43.8 -14.3 77.3 -37.3 100.3 -69.3 22.8 -31.8 34.3 -70 34.3 -114.2 0 -61.3 -21.7 -112.7 -64.8 -154.3 -43.3 -41.7 -100.3 -62.5 -171 -62.5 -70.7 0 -127.5 20.8 -170.8 62.7 -43.3 41.8 -65 94 -65 156.5 0 46.5 11.8 85.5 35.5 117 23.5 31.3 57.2 52.8 100.8 64.1641zm-17.676 149.001c0 -33.8 11 -61.5 32.7 -83 21.8 -21.5 50.2 -32.3 85 -32.3 33.8 0 61.7 10.7 83.3 32 21.7 21.3 32.3 47.5 32.3 78.3 0 32.3 -11 59.3 -33.3 81.3 -22.3 22 -50 33 -83.3 33 -33.5 0 -61.3 -10.8 -83.5 -32.2 -22.2 -21.5 -33.2 -47.3 -33.2 -77.1629zm-28.3261 -330.661c0 -25 6 -49.3 17.8 -72.7 11.8 -23.5 29.5 -41.7 53 -54.5 23.5 -12.8 48.7 -19.3 75.7 -19.3 42 0 76.7 13.5 104 40.7 27.3 27 41 61.3 41 103 0 42.3 -14 77.3 -42.2 105 -28.2 27.7 -63.5 41.5 -105.8 41.5 -41.3 0 -75.5 -13.7 -102.7 -41 -27.2 -27.5 -40.8 -61.7 -40.8 -102.654z"/></glyph><glyph unicode="7" horiz-adv-x="556"><path d="M47.3385 622.001l0 84.5 463.3 0 0 -68.3351c-45.496 -48.5 -90.7 -113 -135.5 -193.3 -44.7 -80.3 -79.3 -163.2 -103.7 -248 -17.7 -60 -28.8 -125.5 -33.7 -196.825l-90.3238 0c0.992124 56.3 12 124.3 33.2 204.2 21.2 79.7 51.5 156.7 91 230.7 39.7 74 81.7 136.5 126.3 187.167l-350.665 0z"/></glyph><glyph unicode="6" horiz-adv-x="556"><path d="M497.499 540.505l-87.3271 -6.84363c-7.83575 34.5 -18.8 59.7 -33.2 75.2 -23.8 25.2 -53.2 37.7 -88 37.7 -28 0 -52.5 -7.8 -73.7 -23.5 -27.7 -20.2 -49.5 -49.7 -65.5 -88.3 -15.8 -38.7 -24.2 -93.8 -24.8 -165.5 21.2 32.2 47 56.2 77.7 71.8 30.5 15.5 62.7 23.3 96.2 23.3 58.7 0 108.5 -21.5 149.7 -64.7 41.2 -43.2 61.8 -98.8 61.8 -167.2 0 -45 -9.8 -86.7 -29.2 -125.3 -19.3 -38.5 -46 -68.2 -79.8 -88.7 -33.8 -20.5 -72.2 -30.7 -115.2 -30.7 -73.3 0 -133 26.8 -179.1 80.8 -46.3 53.8 -69.3 142.7 -69.3 266.3 0 138.3 25.5 238.8 76.7 301.7 44.5 54.7 104.5 82.2 180.2 82.2 56.2 0 102.3 -15.8 138.3 -47.5 36 -31.5 57.5 -75.2 64.7 -130.819zm-358.825 -308.51c0 -30.3 6.5 -59.3 19.3 -87 12.8 -27.7 30.8 -48.7 53.8 -63.2 23.2 -14.5 47.5 -21.8 72.8 -21.8 37.2 0 69 15 95.7 45 26.7 30 40 70.7 40 122 0 49.5 -13.2 88.5 -39.5 117 -26.3 28.5 -59.5 42.7 -99.5 42.7 -39.8 0 -73.5 -14.2 -101.2 -42.7 -27.7 -28.5 -41.5 -65.8 -41.5 -112.009z"/></glyph><glyph unicode="5" horiz-adv-x="556"><path d="M41.5072 187.491l92.3283 7.83575c6.82338 -45 22.7 -78.7 47.5 -101.3 25 -22.7 55 -34 90.2 -34 42.3 0 78.2 16 107.3 47.8 29.3 32 44 74.3 44 127 0 50.2 -14 89.7 -42.2 118.7 -28.2 29 -65 43.5 -110.7 43.5 -28.3 0 -53.8 -6.5 -76.7 -19.3 -22.8 -12.8 -40.7 -29.5 -53.7 -50.0111l-82.5083 10.7 69.3 367.7 356 0 0 -84 -285.7 0 -38.7 -192.33c42.9853 30 88.2 45 135.3 45 62.5 0 115.2 -21.7 158.2 -65 43 -43.3 64.5 -99 64.5 -167 0 -64.8 -19 -120.8 -56.7 -168 -46 -57.8 -108.7 -86.8 -188 -86.8 -65.2 0 -118.3 18.2 -159.5 54.7 -41.2 36.5 -64.7 84.8 -70.5 144.992z"/></glyph><glyph unicode="4" horiz-adv-x="556"><path d="M323.169 0l0 171.3 -310.5 0 0 80.7 326.7 463.8 71.8 0 0 -463.8 96.7 0 0 -80.7 -96.7 0 0 -171.3 -88 0zm0 251.999l0 322.7 -224 -322.7 224 0z"/></glyph><glyph unicode="3" horiz-adv-x="556"><path d="M41.9932 189.01l87.8333 11.6625c10.1642 -49.8 27.3 -85.7 51.5 -107.7 24.3 -22 53.8 -33 88.7 -33 41.3 0 76.3 14.3 104.8 43 28.3 28.7 42.7 64.2 42.7 106.5 0 40.3 -13.2 73.7 -39.5 99.8 -26.5 26.2 -60 39.3 -100.7 39.3 -16.7 0 -37.3 -3.3 -62 -9.82l9.84025 77.1629c5.83126 -0.7 10.5 -1 14.2 -1 37.3 0 71 9.8 101 29.3 30 19.5 45 49.7 45 90.3 0 32.2 -11 59 -32.8 80 -21.8 21.2 -50 31.8 -84.5 31.8 -34.2 0 -62.7 -10.8 -85.3 -32.2 -22.8 -21.5 -37.5 -53.8 -44 -96.8232l-87.8333 15.6715c10.6501 59 35.1 104.7 73.2 137 38.2 32.3 85.5 48.7 142.2 48.7 39 0 75 -8.5 107.8 -25.1 32.8 -16.8 58 -39.7 75.5 -68.7 17.3 -29 26.2 -59.7 26.2 -92.3 0 -30.8 -8.3 -59 -25 -84.5 -16.7 -25.3 -41.2 -45.5 -73.7 -60.5 42.3 -9.7 75.2 -30 98.7 -60.8 23.3 -30.7 35 -69.2 35 -115.3 0 -62.5 -22.7 -115.5 -68.3 -159 -45.5 -43.5 -103.2 -65.2 -172.8 -65.2 -62.8 0 -115 18.7 -156.5 56.2 -41.5 37.3 -65.2 85.8 -71 145.518z"/></glyph><glyph unicode="2" horiz-adv-x="556"><path d="M503.493 84.4925l0 -84.5 -473.2 0c-0.668165 21.2 2.7 41.5 10.2 61 12 32.3 31.3 64 57.8 95.3 26.7 31.2 65 67.3 115 108.3 77.8 63.8 130.5 114.3 157.8 151.7 27.3 37.2 41 72.5 41 105.7 0 34.8 -12.5 64.2 -37.3 88.2 -25 23.8 -57.5 35.8 -97.5 35.8 -42.3 0 -76.2 -12.7 -101.5 -38.2 -25.5 -25.3 -38.3 -60.5 -38.7 -105.327l-90.344 9.17208c6.17546 67.5 29.5 118.8 69.8 154.2 40.3 35.3 94.7 53 162.7 53 68.7 0 123 -19.2 163 -57.2 40.2 -38.2 60.2 -85.3 60.2 -141.7 0 -28.7 -5.8 -56.8 -17.7 -84.5 -11.7 -27.7 -31.2 -56.8 -58.3 -87.3 -27.2 -30.7 -72.3 -72.7 -135.5 -126 -52.7 -44.3 -86.5 -74.3 -101.5 -90.2 -15 -15.7 -27.3 -31.5 -37.2 -47.5005l351.151 0z"/></glyph><glyph unicode="1" horiz-adv-x="556"><path d="M372.492 0l-87.8333 0 0 560.003c-21.1586 -20.2 -48.8 -40.3 -83.2 -60.5 -34.5 -20.2 -65.3 -35.3 -92.7 -45.334l0 84.8367c49.1607 23.2 92.2 51.2 129 84 36.7 33 62.8 64.8 78.2 95.8311l56.4903 0 0 -718.824z"/></glyph><glyph unicode="0" horiz-adv-x="556"><path d="M41.5072 352.994c0 84.7 8.7 152.8 26.2 204.3 17.3 51.7 43.3 91.5 77.7 119.5 34.3 28 77.5 42 129.5 42 38.5 0 72.2 -7.8 101.2 -23.3 29 -15.3 52.8 -37.7 71.8 -66.8 18.8 -29.2 33.7 -64.7 44.3 -106.5 10.8 -41.8 16.2 -98.2 16.2 -169.2 0 -84 -8.7 -151.7 -25.8 -203.3 -17.3 -51.7 -43.2 -91.5 -77.5 -119.7 -34.3 -28.2 -77.7 -42.2 -130.2 -42.2 -69 0 -123.2 24.7 -162.5 74.2 -47.2 59.5 -70.8 156.7 -70.8 290.996zm90.3238 0c0 -117.5 13.8 -195.7 41.3 -234.7 27.5 -38.8 61.3 -58.3 101.7 -58.3 40.5 0 74.3 19.7 101.8 58.7 27.5 39 41.3 117.2 41.3 234.3 0 117.8 -13.8 196.2 -41.3 234.8 -27.5 38.8 -61.7 58.2 -102.7 58.2 -40.5 0 -72.7 -17.2 -96.8 -51.3 -30.2 -43.5 -45.3 -124.2 -45.3 -241.673z"/></glyph><glyph unicode="O" horiz-adv-x="777"><path d="M48.3306 348.661c0 118.8 31.8 211.8 95.7 279 63.8 67.2 146.2 100.8 247.2 100.8 66 0 125.7 -15.8 178.7 -47.3 53 -31.7 93.5 -75.7 121.3 -132.2 27.8 -56.3 41.7 -120.5 41.7 -192 0 -72.7 -14.5 -137.7 -43.8 -194.8 -29.3 -57.3 -70.8 -100.7 -124.5 -130.2 -53.8 -29.5 -111.7 -44.2 -173.8 -44.2 -67.5 0 -127.7 16.2 -180.7 48.8 -53.2 32.5 -93.3 77 -120.7 133.3 -27.3 56.2 -41 115.8 -41 178.663zm97.6736 -1.49831c0 -86.3 23.2 -154.2 69.5 -203.8 46.5 -49.7 104.7 -74.5 174.7 -74.5 71.3 0 130 25 176 75.2 46 50.2 69.2 121.3 69.2 213.5 0 58.2 -10 109 -29.7 152.5 -19.7 43.5 -48.5 77.2 -86.3 101.2 -38 23.8 -80.5 35.8 -127.7 35.8 -67.2 0 -124.8 -23 -173.2 -69.2 -48.3 -46 -72.5 -123 -72.5 -230.679z"/></glyph><glyph unicode="N" horiz-adv-x="722"><path d="M76.1708 0l0 715.8 97.2 0 376 -562 0 562 90.8 0 0 -715.8 -97.2 0 -376 562.5 0 -562.5 -90.8 0z"/></glyph><glyph unicode="M" horiz-adv-x="832"><path d="M74.1663 0l0 715.8 142.7 0 169.3 -506.834c15.6715 -47.2 27.2 -82.5 34.2 -106 8.2 26 20.8 64.3 38.2 114.843l171.334 498 127.5 0 0 -715.8 -91.3 0 0 599.2 -208 -599.2 -85.5 0 -207 609.3 0 -609.3 -91.3 0z"/></glyph><glyph unicode="L" horiz-adv-x="556"><path d="M73.1742 0l0 715.8 94.8 0 0 -631.3 352.5 0 0 -84.5 -447.3 0z"/></glyph><glyph unicode="K" horiz-adv-x="666"><path d="M73.1742 0l0 715.8 94.8 0 0 -355 355.5 355 128.3 0 -300.3 -290 313.5 -425.8 -125 0 -254.8 362.3 -117.2 -114.3 0 -248 -94.8 0z"/></glyph><glyph unicode="J" horiz-adv-x="500"><path d="M28.8323 203.163l85.5049 11.6625c2.16647 -54.7 12.5 -92.2 30.7 -112.3 18.3 -20.2 43.5 -30.2 75.7 -30.2 23.8 0 44.3 5.3 61.5 16.3 17.3 10.8 29.2 25.7 35.7 44.3 6.5 18.8 9.8 48.7 9.8 89.6556l0 493.2 94.7 0 0 -487.821c0 -59.8 -7.2 -106.3 -21.7 -139.2 -14.5 -32.8 -37.5 -57.8 -68.8 -75.2 -31.5 -17.2 -68.3 -25.8 -110.7 -25.8 -62.8 0 -110.8 18 -144.3 54.2 -33.3 36.2 -49.3 89.8 -48 161.169z"/></glyph><glyph unicode="I" horiz-adv-x="277"><path d="M93.3406 0l0 715.8 94.7 0 0 -715.8 -94.7 0z"/></glyph><glyph unicode="H" horiz-adv-x="722"><path d="M79.9976 0l0 715.8 94.8 0 0 -294 372 0 0 294 94.8 0 0 -715.8 -94.8 0 0 337.3 -372 0 0 -337.3 -94.8 0z"/></glyph><glyph unicode="G" horiz-adv-x="777"><path d="M412.157 280.832l0 83.8 303.2 0.5 0 -265.504c-46.5083 -37.2 -94.5 -65 -144 -83.8 -49.5 -18.7 -100.3 -28 -152.3 -28 -70.3 0 -134.3 15 -191.7 45.2 -57.5 30 -100.8 73.7 -130.2 130.5 -29.3 57 -44 120.7 -44 191 0 69.7 14.7 134.7 43.8 195 29 60.5 71 105.3 125.7 134.7 54.7 29.2 117.7 43.8 189 43.8 51.7 0 98.5 -8.3 140.3 -25.2 41.8 -16.7 74.7 -40 98.3 -70 23.8 -30 41.8 -69 54.3 -117.172l-85.5049 -23.487c-10.8324 36.5 -24.2 65.2 -40 86 -16 20.8 -38.8 37.5 -68.5 50 -29.5 12.5 -62.5 18.8 -98.5 18.8 -43.3 0 -80.8 -6.7 -112.3 -19.8 -31.7 -13.2 -57 -30.5 -76.5 -52 -19.3 -21.5 -34.3 -45 -45.2 -70.8 -18.2 -44.2 -27.3 -92.2 -27.3 -144 0 -63.8 11 -117.2 33 -160.2 22 -43 54 -74.8 96 -95.7 42 -20.8 86.5 -31.3 133.7 -31.3 41.2 0 81.2 8 120.2 23.8 39.2 15.7 68.7 32.5 88.8 50.4971l0 133.3 -210.3 0z"/></glyph><glyph unicode="F" horiz-adv-x="610"><path d="M82.0021 0l0 715.8 483 0 0 -84.5 -388.2 0 0 -221.7 335.8 0 0 -84.5 -335.8 0 0 -325.2 -94.8 0z"/></glyph><glyph unicode="E" horiz-adv-x="666"><path d="M79.1674 0l0 715.8 517.5 0 0 -84.5 -422.8 0 0 -219.2 396 0 0 -84 -396 0 0 -243.7 439.5 0 0 -84.5 -534.2 0z"/></glyph><glyph unicode="D" horiz-adv-x="722"><path d="M77.1629 0l0 715.8 246.5 0c55.6602 0 98.2 -3.5 127.5 -10.3 41 -9.3 76 -26.5 105 -51.2 37.7 -32 66 -72.7 84.7 -122.3 18.8 -49.7 28.2 -106.3 28.2 -170.2 0 -54.3 -6.3 -102.5 -19.2 -144.5 -12.7 -42 -28.8 -76.8 -48.8 -104.3 -19.8 -27.5 -41.5 -49.2 -65.2 -64.8 -23.5 -15.8 -52 -27.8 -85.3 -36 -33.5 -8.2 -71.8 -12.2 -115 -12.1687l-258.337 0zm94.677 84.4925l152.828 0c47.1562 0 84.3 4.3 111.2 13.2 26.8 8.8 48.2 21.2 64.2 37.2 22.5 22.3 40 52.7 52.5 90.5 12.5 38 18.9 83.8 18.9 138 0 74.8 -12.4 132.3 -36.9 172.5 -24.7 40.3 -54.5 67.2 -89.7 80.8 -25.3 9.8 -66.3 14.7 -122.5 14.6591l-150.499 0 0 -546.842z"/></glyph><glyph unicode="C" horiz-adv-x="722"><path d="M587.843 251.007l94.8187 -24.0134c-19.8222 -77.7 -55.7 -137 -107.2 -178 -51.7 -40.8 -114.7 -61.2 -189.3 -61.2 -77.2 0 -139.8 15.7 -188.2 47 -48.3 31.5 -85.2 77 -110.3 136.5 -25.2 59.7 -37.8 123.7 -37.8 192 0 74.5 14.2 139.5 42.7 195 28.5 55.5 69 97.7 121.7 126.5 52.5 28.8 110.3 43.2 173.5 43.2 71.7 0 131.9 -18.2 180.7 -54.7 48.8 -36.5 82.8 -87.7 102 -153.82l-93.1584 -22.0089c-16.6636 52.2 -40.7 90 -72.3 113.8 -31.5 23.8 -71.2 35.7 -119.2 35.7 -55 0 -100.8 -13.2 -137.8 -39.5 -37 -26.5 -63 -61.8 -77.8 -106.3 -15 -44.3 -22.5 -90.2 -22.5 -137.3 0 -61 8.8 -114 26.5 -159.5 17.8 -45.3 45.3 -79.3 82.8 -101.8 37.5 -22.5 78 -33.7 121.7 -33.7 53 0 97.8 15.3 134.7 45.8 36.8 30.7 61.7 76.2 74.7 136.346z"/></glyph><glyph unicode="B" horiz-adv-x="666"><path d="M73.1742 0l0 715.8 268.7 0c54.668 0 98.5 -7.3 131.5 -21.7 33.2 -14.5 59 -36.8 77.7 -67 18.7 -30 28.2 -61.5 28.2 -94.5 0 -30.5 -8.3 -59.3 -25 -86.3 -16.5 -27 -41.7 -48.8 -75.2 -65.5 43.3 -12.7 76.5 -34.3 99.8 -64.8 23.3 -30.7 35 -66.8 35 -108.5 0 -33.5 -7.2 -64.7 -21.3 -93.5 -14.2 -28.8 -31.7 -51 -52.5 -66.7 -20.8 -15.7 -47 -27.3 -78.3 -35.3 -31.3 -8 -69.8 -12 -115.5 -12.0067l-272.996 0zm94.8187 414.991l154.832 0c41.8514 0 72 2.8 90.3 8.3 24 7.2 42.2 19 54.3 35.7 12.2 16.7 18.3 37.5 18.3 62.5 0 23.7 -5.7 44.7 -17 62.7 -11.5 18.2 -27.8 30.5 -48.8 37.2 -21.2 6.7 -57.5 10 -109 10.0022l-143.008 0 0 -216.344zm0 -330.499l178.177 0c30.6546 0 52.2 1.2 64.5 3.3 21.8 4 40 10.5 54.7 19.7 14.7 9 26.7 22.3 36.2 39.7 9.3 17.5 14.2 37.5 14.2 60.3 0 26.7 -6.8 49.8 -20.5 69.7 -13.7 19.7 -32.7 33.5 -57 41.5 -24.2 7.8 -59.2 11.8 -104.7 11.8245l-165.502 0 0 -246.006z"/></glyph><glyph unicode="A" horiz-adv-x="666"><path d="M-1.49831 0l275.001 715.8 102 0 293 -715.8 -108 0 -83.5 216.8 -299.3 0 -78.5 -216.8 -100.7 0zm206.503 293.993l242.827 0 -74.8 198.182c-22.6569 60.2 -39.7 109.7 -50.7 148.5 -9.2 -46 -22 -91.5 -38.7 -136.832l-78.6612 -209.844z"/></glyph><glyph unicode="@" horiz-adv-x="1015"><path d="M566.827 79.6736c-21.1586 -24.5 -44.8 -44.2 -71 -58.8 -26.2 -14.8 -52.5 -22.3 -78.8 -22.3 -29 0 -57.2 8.5 -84.5 25.5 -27.3 16.8 -49.5 42.8 -66.7 78 -17 35.2 -25.7 73.8 -25.7 115.8 0 51.7 13.3 103.5 39.8 155.5 26.5 51.8 59.5 90.8 98.8 116.8 39.5 26.2 77.7 39.2 114.8 39.2 28.3 0 55.3 -7.5 81 -22.3 25.8 -14.7 47.8 -37.3 66.5 -67.5049l16.4814 75.7 87.5 0 -70.3 -327.684c-9.82 -45.5 -14.7 -70.8 -14.7 -75.7 0 -8.8 3.3 -16.3 10 -22.7 6.7 -6.3 14.7 -9.5 24.2 -9.5 17.4 0 39.8 9.8 67.8 29.7 37.2 26.2 66.5 61 88.2 104.8 21.7 43.7 32.5 88.8 32.5 135.5 0 54.3 -14 105.2 -41.8 152.3 -27.8 47.2 -69.3 84.8 -124.5 113.2 -55.2 28.3 -116 42.5 -182.8 42.5 -76.2 0 -145.7 -17.8 -208.7 -53.5 -63 -35.5 -111.8 -86.7 -146.5 -153.2 -34.7 -66.7 -52 -138 -52 -214.2 0 -79.8 17.3 -148.5 52 -206 34.7 -57.7 84.8 -100.3 150.3 -127.8 65.7 -27.5 138.3 -41.2 218 -41.2 85.3 0 156.8 14.3 214.3 43 57.7 28.7 100.8 63.5 129.5 104.497l88.3395 0c-16.6636 -34.2 -45 -69 -85.5 -104.5 -40.3 -35.5 -88.3 -63.7 -144 -84.3 -55.7 -20.7 -122.7 -31 -201.2 -31 -72.3 0 -138.8 9.3 -200 27.8 -61 18.7 -113 46.5 -156 83.8 -43 37.2 -75.3 80.2 -97.2 128.7 -27.3 61.5 -41 127.8 -41 199.2 0 79.5 16.3 155.2 48.8 227 39.7 88.3 96.2 155.8 169.2 202.7 73.2 46.8 161.8 70.3 266 70.3 80.7 0 153.2 -16.5 217.5 -49.5 64.2 -33.2 115 -82.3 152 -147.8 31.7 -56.2 47.3 -117.5 47.3 -183.5 0 -94.5 -33.2 -178.2 -99.5 -251.5 -59.3 -65.7 -124 -98.7 -194.3 -98.7 -22.5 0 -40.7 3.5 -54.5 10.3 -13.8 6.8 -24 16.5 -30.5 29.3 -4.2 8 -7.3 22 -9.3 42.0134zm-236.328 132.155c0 -44.5 10.7 -79.2 31.8 -104 21.2 -24.7 45.3 -37 72.7 -37 18.3 0 37.5 5.5 57.7 16.3 20.2 10.8 39.5 27.2 57.8 48.5 18.5 21.5 33.5 48.8 45.2 81.8 11.8 33 17.7 66.2 17.7 99.3 0 44.3 -11 78.7 -33 103.2 -22 24.3 -48.8 36.5 -80.3 36.5 -20.8 0 -40.5 -5.2 -58.8 -15.8 -18.3 -10.5 -36.2 -27.5 -53.5 -51 -17.1 -23.5 -31 -52 -41.5 -85.5 -10.3 -33.5 -15.7 -64.3 -15.7 -92.3283z"/></glyph><glyph unicode="_" horiz-adv-x="556"><path d="M-15.1653 -198.668l0 63.3 582.5 0 0 -63.3 -582.5 0z"/></glyph><glyph unicode="^" horiz-adv-x="469"><path d="M116.666 336.836l-90.3238 0 172.3 391.2 70.8 0 173.3 -391.2 -88.3 0 -120.7 291.7 -117.2 -291.664z"/></glyph><glyph unicode="]" horiz-adv-x="277"><path d="M212.841 -198.668l-193.849 0 0 72.7 106 0 0 769 -106 0 0 72.8 193.8 0 0 -914.495z"/></glyph><glyph unicode="\" horiz-adv-x="277"><path d="M207.496 -12.1687l-207.496 740.2 70.8 0 207 -740.2 -70.3 0z"/></glyph><glyph unicode="[" horiz-adv-x="277"><path d="M67.8289 -198.668l0 914.5 193.8 0 0 -72.8 -105.8 0 0 -769 105.8 0 0 -72.7 -193.8 0z"/></glyph><glyph unicode="Z" horiz-adv-x="610"><path d="M20.0045 0l0 87.8 366.7 458.503c26.1597 32.7 50.8 61 74.3 84.9987l-399.502 0 0 84.5 512.7 0 0 -84.5 -401.9 -496.5 -43.5 -50.3 457.2 0 0 -84.5 -566 0z"/></glyph><glyph unicode="Y" horiz-adv-x="666"><path d="M278.827 0l0 303.2 -275.8 412.7 115.2 0 141.2 -215.817c25.9977 -40.4 50.2 -80.7 72.7 -121.2 21.5 37.5 47.5 79.7 78.2 126.506l138.654 210.5 110.3 0 -285.7 -412.7 0 -303.2 -94.7 0z"/></glyph><glyph unicode="X" horiz-adv-x="666"><path d="M4.33295 0l277.005 373 -244.2 342.8 112.7 0 130 -183.664c26.9898 -38 46.2 -67.3 57.5 -87.8 16 26 34.8 53.2 56.7 81.4959l144.182 190 103 0 -251.5 -337.3 271 -378.5 -117.2 0 -180.2 255.34c-10.1642 14.7 -20.5 30.7 -31.3 47.8 -16 -26 -27.3 -43.8 -34.2 -53.6557l-179.676 -249.5 -113.8 0z"/></glyph><glyph unicode="W" horiz-adv-x="943"><path d="M202.171 0l-190.002 715.8 97.2 0 109 -469.153c11.6625 -49.2 21.7 -98 30.2 -146.5 18.3 76.5 29 120.5 32.3 132.337l136.164 483.3 114.3 0 102.5 -362.328c25.6737 -89.8 44.2 -174.3 55.7 -253.3 9 45.2 21 97.2 35.7 155.662l112.171 460 95.3 0 -196.3 -715.8 -91.3 0 -150.8 545.324c-12.6546 45.7 -20.2 73.7 -22.5 84 -7.5 -32.8 -14.5 -60.8 -21 -84.0066l-151.835 -545.3 -96.7 0z"/></glyph><glyph unicode="V" horiz-adv-x="666"><path d="M281.662 0l-277.329 715.8 102.7 0 186 -519.994c15.0033 -41.7 27.5 -80.8 37.5 -117.2 11.2 39 24 78 38.7 117.172l193.322 520 96.7 0 -280.3 -715.8 -97.2 0z"/></glyph><glyph unicode="U" horiz-adv-x="722"><path d="M546.842 715.827l94.8187 0 0 -413.655c0 -71.8 -8.2 -129 -24.5 -171.3 -16.3 -42.3 -45.7 -76.7 -88.2 -103.2 -42.5 -26.7 -98.2 -39.8 -167.2 -39.8 -67 0 -122 11.5 -164.5 34.7 -42.7 23 -73.2 56.5 -91.3 100.3 -18.3 43.8 -27.3 103.5 -27.3 179.331l0 413.7 94.7 0 0 -413.169c0 -62.2 5.8 -108 17.3 -137.3 11.5 -29.5 31.5 -52.2 59.5 -68.2 28.2 -16 62.7 -24 103.3 -24 69.7 0 119.3 15.8 149 47.5 29.5 31.5 44.3 92.2 44.3 181.984l0 413.169z"/></glyph><glyph unicode="T" horiz-adv-x="610"><path d="M259.329 0l0 631.3 -235.8 0 0 84.5 567.3 0 0 -84.5 -236.8 0 0 -631.3 -94.7 0z"/></glyph><glyph unicode="S" horiz-adv-x="666"><path d="M45.01 229.99l89.3316 7.83575c4.15072 -35.8 14 -65.2 29.5 -88.2 15.5 -23 39.5 -41.5 72 -55.7 32.5 -14.2 69.2 -21.2 109.8 -21.2 36.2 0 68 5.3 95.7 16 27.7 10.8 48.3 25.5 61.8 44.2 13.5 18.8 20.3 39.2 20.3 61.3 0 22.5 -6.5 42 -19.7 58.8 -13 16.8 -34.5 30.8 -64.3 42.2 -19.3 7.5 -61.7 19.2 -127.5 35 -65.7 15.8 -111.8 30.7 -138.2 44.7 -34.2 17.8 -59.6 40.2 -76.5 66.7 -16.7 26.5 -25 56.2 -25 89.2 0 36 10.2 69.8 30.7 101.2 20.5 31.5 50.5 55.3 89.8 71.7 39.5 16.2 83.2 24.3 131.3 24.3 53.2 0 99.8 -8.5 140.5 -25.7 40.5 -17 71.7 -42.2 93.5 -75.3 21.7 -33.2 33.5 -70.8 35.2 -112.839l-90.8299 -6.82338c-5.00111 45.2 -21.5 79.5 -49.7 102.5 -28.2 23.2 -69.7 34.7 -124.7 34.7 -57.3 0 -99 -10.5 -125.3 -31.5 -26.2 -21 -39.3 -46.3 -39.3 -75.8 0 -25.8 9.3 -47 27.8 -63.5 18.3 -16.7 65.8 -33.7 142.8 -51 77 -17.5 129.8 -32.7 158.5 -45.7 41.7 -19.3 72.5 -43.7 92.3 -73 19.8 -29.5 29.7 -63.5 29.7 -101.8 0 -38.2 -10.8 -74 -32.7 -107.7 -21.8 -33.7 -53.1 -59.8 -94 -78.7 -40.8 -18.7 -86.8 -28 -137.8 -28 -64.8 0 -119.2 9.3 -162.8 28.3 -43.8 18.9 -78.2 47.2 -103.2 85.2 -24.8 37.8 -38 80.8 -39.2 128.652z"/></glyph><glyph unicode="R" horiz-adv-x="722"><path d="M78.6612 0l0 715.8 317.3 0c63.8401 0 112.3 -6.5 145.5 -19.3 33.2 -12.8 59.7 -35.5 79.7 -68 19.8 -32.7 29.7 -68.7 29.7 -108 0 -50.8 -16.3 -93.5 -49.3 -128.3 -32.8 -34.8 -83.7 -57 -152.3 -66.5 25.2 -12 44.2 -23.8 57.2 -35.7 27.7 -25.3 53.8 -57.2 78.7 -95.1629l124.481 -194.8 -119.2 0 -94.7 149.001c-27.658 42.8 -50.5 75.8 -68.5 98.5 -17.8 22.8 -33.8 38.8 -48 47.8 -14.2 9.2 -28.5 15.5 -43.2 19.2 -10.8 2.2 -28.3 3.3 -52.8 3.32058l-109.822 0 0 -317.8 -94.7 0zm94.677 399.826l203.669 0c43.1675 0 77.2 4.5 101.5 13.5 24.5 9 43 23.3 55.7 43 12.7 19.7 19 41 19 64.2 0 33.8 -12.2 61.7 -36.8 83.5 -24.5 21.8 -63.3 32.7 -116.5 32.6591l-226.488 0 0 -236.834z"/></glyph><glyph unicode="Q" horiz-adv-x="777"><path d="M619.672 76.6567c43.8357 -30.3 84.5 -52.3 121.5 -66.3306l-27.82 -65.9864c-51.3272 18.5 -102.7 47.8 -153.8 87.8 -53 -29.5 -111.5 -44.3 -175.7 -44.3 -64.8 0 -123.5 15.7 -176.3 46.8 -52.7 31.3 -93.3 75.2 -121.8 131.8 -28.5 56.7 -42.7 120.5 -42.7 191.3 0 70.7 14.3 135 43 193 28.7 57.8 69.3 102 122.3 132.3 52.8 30.2 112 45.3 177.3 45.3 66.2 0 125.7 -15.7 178.8 -47.2 53 -31.3 93.5 -75.3 121.3 -131.8 27.8 -56.5 41.6 -120.2 41.6 -191.2 0 -58.8 -8.8 -111.8 -26.8 -158.8 -17.8 -47 -44.8 -88 -81 -122.841zm-208.508 121.181c54.668 -15.3 99.7 -38.2 135.2 -68.5 55.7 50.8 83.5 127.2 83.5 229 0 58 -9.8 108.7 -29.5 152 -19.7 43.2 -48.5 76.8 -86.3 100.8 -38 23.8 -80.5 35.8 -127.8 35.8 -70.5 0 -129.2 -24.2 -175.7 -72.5 -46.7 -48.3 -69.8 -120.5 -69.8 -216.7 0 -93 23 -164.5 69 -214.3 46.2 -49.7 105 -74.7 176.5 -74.7 34 0 65.8 6.3 95.8 19 -29.7 19.3 -61 33 -93.8 41.001l23.0011 69.0032z"/></glyph><glyph unicode="P" horiz-adv-x="666"><path d="M77.1629 0l0 715.8 270 0c47.5005 0 83.8 -2.3 108.8 -6.8 35.2 -5.8 64.7 -17 88.5 -33.5 23.7 -16.3 42.8 -39.5 57.3 -69 14.5 -29.7 21.7 -62.2 21.7 -97.7 0 -60.8 -19.3 -112.5 -58 -154.7 -38.8 -42 -108.8 -63.2 -210 -63.172l-183.664 0 0 -291 -94.7 0zm94.677 375.509l185.163 0c61.1675 0 104.7 11.3 130.3 34.2 25.7 22.8 38.5 54.8 38.5 96.2 0 30 -7.5 55.7 -22.7 77 -15.2 21.3 -35 35.3 -59.8 42.2 -16 4.2 -45.3 6.3 -88.3 6.33744l-183.158 0 0 -255.826z"/></glyph><glyph unicode="o" horiz-adv-x="556"><path d="M33.1653 259.329c0 96 26.7 167.2 80.2 213.3 44.5 38.3 98.8 57.7 163 57.7 71.3 0 129.7 -23.3 174.8 -70.2 45.3 -46.7 67.8 -111.2 67.8 -193.5 0 -66.8 -10 -119.3 -30 -157.5 -20 -38.3 -49.2 -68 -87.3 -89.2 -38.3 -21.2 -80 -31.7 -125.3 -31.7 -72.5 0 -131.2 23.2 -176 69.8 -44.8 46.5 -67.2 113.5 -67.2 201.158zm90.344 0c0 -66.5 14.5 -116.2 43.5 -149.2 29 -33.2 65.5 -49.7 109.3 -49.7 43.7 0 80 16.7 109 49.8 28.8 33.2 43.3 83.8 43.3 151.8 0 64.2 -14.5 112.8 -43.7 145.8 -29.2 33 -65.3 49.5 -108.7 49.5 -43.8 0 -80.3 -16.5 -109.3 -49.3 -29 -32.8 -43.5 -82.5 -43.5 -148.839z"/></glyph><glyph unicode="n" horiz-adv-x="556"><path d="M66.0066 0l0 518.5 79 0 0 -73.6601c38.1664 57 93.2 85.5 165 85.5 31.3 0 60 -5.7 86.2 -16.8 26.3 -11.3 45.8 -26 58.8 -44.3 13.2 -18.2 22.2 -39.8 27.5 -64.8 3.2 -16.3 4.8 -44.8 4.8 -85.5049l0 -318.8 -88 0 0 315.495c0 35.7 -3.3 62.5 -10.2 80.3 -6.8 17.7 -19 31.8 -36.3 42.3 -17.5 10.7 -37.8 16 -61.3 16 -37.5 0 -69.7 -12 -97 -35.7 -27.2 -23.8 -40.7 -68.8 -40.7 -135.334l0 -283.2 -87.8 0z"/></glyph><glyph unicode="m" horiz-adv-x="832"><path d="M66.0066 0l0 518.5 78.5 0 0 -72.668c16.3194 25.3 38 45.8 65 61.2 27 15.5 57.8 23.3 92.3 23.3 38.3 0 69.8 -8 94.3 -24 24.7 -16 42 -38.2 52 -66.8 41.2 60.5 94.5 90.9 160.2 90.9 51.5 0 91 -14.3 118.7 -42.8 27.7 -28.5 41.5 -72.3 41.5 -131.507l0 -356 -87.3 0 0 326.672c0 35.2 -2.8 60.5 -8.5 76 -5.8 15.3 -16.2 27.8 -31 37.3 -15 9.3 -32.7 14.2 -52.8 14.2 -36.5 0 -66.7 -12.2 -90.8 -36.5 -24 -24.2 -36.2 -63 -36.2 -116.321l0 -301.3 -87.8 0 0 336.836c0 39.2 -7.1 68.5 -21.5 88 -14.3 19.5 -37.7 29.3 -70.3 29.3 -24.7 0 -47.5 -6.5 -68.5 -19.7 -21 -13 -36.3 -32 -45.7 -57 -9.5 -25.2 -14.2 -61.3 -14.2 -108.486l0 -269 -87.8 0z"/></glyph><glyph unicode="l" horiz-adv-x="222"><path d="M64.0021 0l0 715.8 87.8 0 0 -715.8 -87.8 0z"/></glyph><glyph unicode="k" horiz-adv-x="500"><path d="M66.3306 0l0 715.8 88 0 0 -408.2 208 210.8 113.7 0 -198.2 -192.3 218.3 -326.2 -108.5 0 -171.3 265.2 -62 -59.7 0 -205.5 -88 0z"/></glyph><glyph unicode="j" horiz-adv-x="222"><path d="M65.5004 613.841l0 102 87.8 0 0 -102 -87.8 0zm-111.341 -814.999l16.5017 74.6523c17.676 -4.5 31.5 -6.8 41.5 -6.8 18 0 31.3 6 40 17.8 8.8 11.8 13.3 41.6 13.3 89.1494l0 544.8 87.8 0 0 -546.822c0 -63.8 -8.3 -108.2 -24.8 -133.3 -21.2 -32.5 -56.3 -48.8 -105.5 -48.8 -23.8 0 -46.8 3.2 -68.8 9.33406z"/></glyph><glyph unicode="i" horiz-adv-x="222"><path d="M66.3306 614.671l0 101.2 88 0 0 -101.2 -88 0zm0 -614.671l0 518.5 88 0 0 -518.5 -88 0z"/></glyph><glyph unicode="h" horiz-adv-x="556"><path d="M66.0066 0l0 715.8 87.8 0 0 -256.818c41.001 47.5 92.8 71.3 155.3 71.3 38.3 0 71.7 -7.7 100 -22.8 28.3 -15 48.7 -36 60.8 -62.7 12.2 -26.7 18.3 -65.5 18.3 -116.159l0 -328.7 -88 0 0 328.676c0 43.8 -9.5 75.8 -28.5 95.8 -19 20 -46 30.2 -80.8 30.2 -26 0 -50.5 -6.8 -73.5 -20.3 -23 -13.5 -39.3 -31.8 -49 -55 -9.8 -23 -14.7 -55 -14.7 -95.6691l0 -283.7 -87.8 0z"/></glyph><glyph unicode="g" horiz-adv-x="556"><path d="M49.8289 -43.0055l85.5049 -12.6546c3.5028 -26.3 13.5 -45.5 29.7 -57.7 21.8 -16.2 51.7 -24.3 89.3 -24.3 40.8 0 72.2 8.2 94.3 24.3 22.2 16.3 37 39.2 44.8 68.3 4.7 18 6.7 55.5 6.3 112.8 -38.3 -45.2 -86.2 -67.8 -143.5 -67.8 -71.3 0 -126.5 25.7 -165.5 77.2 -39 51.3 -58.7 113.2 -58.7 185 0 49.5 9 95.2 26.8 137 18 41.9 44 74.2 78 97 34 22.7 74 34.2 119.8 34.2 61.2 0 111.7 -24.8 151.3 -74.3485l0 62.5 81.2 0 0 -448.156c0 -80.7 -8.3 -138 -24.7 -171.7 -16.5 -33.7 -42.5 -60.3 -78.2 -79.8 -35.7 -19.5 -79.5 -29.3 -131.7 -29.3 -61.8 0 -111.8 14 -149.8 41.8 -38.2 27.8 -56.5 69.7 -55.2 125.656zm72.668 311.507c0 -68 13.5 -117.7 40.7 -148.8 27 -31.3 60.8 -46.8 101.5 -46.8 40.3 0 74.2 15.5 101.5 46.5 27.3 31.2 41 79.8 41 146.3 0 63.5 -14 111.3 -42.2 143.5 -28.2 32.2 -62.2 48.3 -101.8 48.3 -39 0 -72.2 -15.8 -99.7 -47.7 -27.3 -31.7 -41 -78.8 -41 -141.327z"/></glyph><glyph unicode="f" horiz-adv-x="277"><path d="M86.8412 0l0 450.2 -77.5 0 0 68.3 77.5 0 0 55.1742c0 34.8 3.2 60.8 9.3 77.7 8.5 22.8 23.3 41.3 44.7 55.5 21.3 14.2 51.2 21.2 89.7 21.2 24.7 0 52 -2.8 82 -8.82788l-13.1608 -76.677c-18.1619 3.3 -35.5 5 -51.8 5 -26.7 0 -45.5 -5.6 -56.5 -17.1 -11.2 -11.3 -16.7 -32.7 -16.7 -64.0021l0 -47.8 101 0 0 -68.3 -101 0 0 -450.2 -87.5 0z"/></glyph><glyph unicode="e" horiz-adv-x="556"><path d="M420.843 167.001l90.8299 -11.1766c-14.3352 -53.1 -40.8 -94.3 -79.5 -123.7 -38.8 -29.2 -88.3 -43.8 -148.5 -43.8 -75.8 0 -136 23.3 -180.3 70 -44.5 46.7 -66.7 112.2 -66.7 196.5 0 87.3 22.5 155 67.3 203.2 45 48.2 103.2 72.3 174.8 72.3 69.3 0 126 -23.7 169.8 -70.8 44 -47.2 66 -113.7 66 -199.2 0 -5.3 -0.2 -13.2 -0.5 -23.5073l-386.665 0c3.1586 -57 19.3 -100.7 48.3 -130.8 29 -30.3 65 -45.5 108.3 -45.5 32.2 0 59.7 8.5 82.5 25.5 22.8 16.8 40.8 43.8 54.2 81.0099zm-288.506 142.157l289.498 0c-3.82676 43.5 -15 76.3 -33.2 98 -28 33.8 -64.3 50.8 -108.8 50.8 -40.3 0 -74.3 -13.5 -101.8 -40.5 -27.5 -27 -42.7 -63.2 -45.7 -108.344z"/></glyph><glyph unicode="d" horiz-adv-x="556"><path d="M402.337 0l0 65.5004c-32.8413 -51.5 -81.2 -77.2 -145 -77.2 -41.3 0 -79.3 11.3 -114 34.2 -34.7 22.7 -61.5 54.5 -80.7 95.5 -19 40.8 -28.5 87.7 -28.5 140.8 0 51.7 8.7 98.7 25.8 140.8 17.3 42.2 43.2 74.5 77.7 96.8 34.5 22.5 73.2 33.8 115.8 33.8 31.2 0 59 -6.7 83.3 -19.8 24.5 -13.2 44.3 -30.3 59.7 -51.4892l0 256.8 87.3 0 0 -715.8 -81.5 0zm-277.835 258.843c0 -66.5 14 -116.2 42 -149 28 -32.8 61 -49.3 99.2 -49.3 38.3 0 71 15.8 97.8 47.2 26.8 31.3 40.3 79.3 40.3 143.8 0 71 -13.7 123 -41 156.2 -27.3 33.3 -61 49.8 -101.2 49.8 -39 0 -71.7 -16 -97.8 -47.8 -26.2 -31.8 -39.3 -82.2 -39.3 -150.823z"/></glyph><glyph unicode="c" horiz-adv-x="500"><path d="M404.341 190.002l86.335 -11.3386c-9.33406 -59.5 -33.5 -106.2 -72.5 -139.8 -38.8 -33.7 -86.7 -50.5 -143.3 -50.5 -70.8 0 -128 23.2 -171 69.5 -43.2 46.3 -64.8 112.8 -64.8 199.5 0 56 9.3 105 27.8 147 18.7 42 46.8 73.5 84.8 94.5 37.8 21 79.2 31.5 123.7 31.5 56.3 0 102.5 -14.3 138.2 -42.8 35.8 -28.5 58.8 -68.8 69 -121.323l-85.5049 -13.1811c-8.15971 34.8 -22.5 61 -43.2 78.7 -20.7 17.5 -45.7 26.3 -75 26.3 -44.3 0 -80.3 -15.8 -108 -47.7 -27.7 -31.7 -41.5 -81.8 -41.5 -150.5 0 -69.7 13.3 -120.3 40.2 -152 26.7 -31.5 61.5 -47.3 104.5 -47.3 34.5 0 63.2 10.7 86.3 31.8 23.2 21.2 37.8 53.7 44 97.6736z"/></glyph><glyph unicode="b" horiz-adv-x="556"><path d="M146.996 0l-81.4959 0 0 715.8 87.8 0 0 -255.32c37.1743 46.5 84.5 69.8 142 69.8 32 0 62.2 -6.5 90.7 -19.3 28.5 -12.8 51.8 -31 70.3 -54.2 18.3 -23.3 32.8 -51.3 43.2 -84.4 10.5 -32.8 15.7 -68 15.7 -105.3 0 -89 -22 -157.7 -66 -206.2 -43.8 -48.5 -96.7 -72.7 -158.2 -72.7 -61.2 0 -109.2 25.5 -144 76.6567l0 -64.9942zm-0.992124 263.176c0 -62.2 8.5 -107 25.3 -134.7 27.7 -45.3 65.2 -68 112.3 -68 38.5 0 71.7 16.7 99.7 50.2 28 33.3 42 83 42 149.2 0 67.7 -13.5 117.7 -40.3 149.8 -26.8 32.2 -59.3 48.3 -97.3 48.3 -38.5 0 -71.7 -16.7 -99.7 -50 -28 -33.3 -42 -81.7 -42 -144.83z"/></glyph><glyph unicode="a" horiz-adv-x="556"><path d="M404.341 64.0021c-32.6793 -27.7 -64 -47.2 -94 -58.7 -30.2 -11.3 -62.5 -17 -97 -17 -57 0 -100.7 13.8 -131.3 41.7 -30.5 27.8 -45.8 63.5 -45.8 106.7 0 25.5 5.7 48.7 17.3 69.7 11.5 21 26.7 37.8 45.3 50.5 18.8 12.7 39.8 22.3 63.3 28.8 17.2 4.5 43.2 9 78 13.2 71 8.5 123.3 18.5 156.8 30.3 0.3 12 0.5 19.7 0.5 22.8 0 35.8 -8.3 61.2 -25 75.7 -22.3 20 -55.8 29.8 -100 29.8 -41.3 0 -71.8 -7.1 -91.7 -21.7 -19.7 -14.5 -34.2 -40.2 -43.7 -77.001l-85.8491 11.8447c7.83575 36.7 20.7 66.5 38.5 89 17.8 22.7 43.8 40.2 77.7 52.3 33.8 12.2 73 18.3 117.7 18.3 44.3 0 80.2 -5.3 107.8 -15.7 27.7 -10.5 48 -23.5 61.2 -39.3 13 -15.8 22 -35.7 27.3 -59.8 2.8 -15 4.3 -42 4.3 -80.9897l0 -117.172c0 -81.8 1.8 -133.5 5.7 -155 3.7 -21.7 11.2 -42.5 22.2 -62.3418l-91.8221 0c-9.0101 18.2 -15 39.5 -17.5 64.0021zm-7.34981 196.339c-31.9909 -13.2 -79.8 -24.2 -143.5 -33.3 -36.2 -5.2 -61.8 -11 -76.7 -17.5 -15 -6.5 -26.7 -16 -34.7 -28.7 -8.2 -12.5 -12.3 -26.3 -12.3 -41.7 0 -23.5 9 -43 26.7 -58.7 17.7 -15.5 43.7 -23.3 77.8 -23.3 33.8 0 64 7.3 90.3 22.2 26.3 14.8 45.8 35.2 58.2 60.8 9.5 19.8 14.2 49.2 14.2 87.8333l0 32.3351z"/></glyph><glyph unicode="`" horiz-adv-x="333"><path d="M226.994 583.004l-70.6635 0 -112.8 136.7 117.7 0 65.8 -136.67z"/></glyph><glyph unicode="" horiz-adv-x="750"><path d="M125.008 0l0 625 500 0 0 -625 -500 0zm15.6513 15.6715l468.667 0 0 593.7 -468.7 0 0 -593.654z"/></glyph><glyph unicode="~" horiz-adv-x="583"><path d="M42.4993 272.004l0 100.002c34.5016 39.2 79.7 58.7 135.7 58.7 19.7 0 40.2 -2.8 61.5 -8.5 21.5 -5.6 52.2 -17 91.8 -34 22.5 -9.5 39.3 -15.7 50.5 -18.5 11.3 -3 22.7 -4.5 34 -4.5 21.2 0 43 6.3 65.7 19.2 22.7 12.7 42.7 28.7 60.3 47.8244l0 -103.485c-20.8346 -19.5 -42 -33.7 -63.2 -42.5 -21.3 -8.8 -45.3 -13.2 -72.2 -13.2 -19.5 0 -38.2 2.2 -55.8 6.8 -17.7 4.5 -45.8 15.3 -84.5 32.7 -38.5 17.3 -70.7 25.8 -96.3 25.8 -20.8 0 -40.5 -4.5 -58.8 -13.3 -18.5 -9 -41.3 -26.7 -68.7 -52.9875z"/></glyph><glyph unicode="}" horiz-adv-x="334"><path d="M305.675 298.832l0 -79.6736c-25.0056 -0.5 -45.5 -7.3 -61.3 -20.5 -15.7 -13 -26.2 -30.7 -31.5 -52.8 -5.2 -22.3 -8 -60.7 -8.2 -115 -0.3 -54.5 -1.3 -90.2 -3 -107.5 -3 -27.7 -8.3 -49.7 -16.3 -66.2 -8 -16.5 -17.8 -29.7 -29.5 -39.5 -11.8 -10 -26.8 -17.5 -45 -22.7 -12.3 -3.7 -32.5 -5.5 -60.5 -5.48705l-27.334 0 0 76.7 15.2 0c33.8334 0 56.2 6.2 67.3 18.3 11 12.1 16.5 39.7 16.5 82.3 0 81.3 1.5 133 4.5 154.8 5.2 36 15.7 65 31.2 86.7 15.7 21.5 37.8 38.3 66.5 50.5 -37.5 17.8 -63.8 41.5 -79.2 71 -15.3 29.5 -23 79.2 -23 149.2 0 63.5 -0.6 101.3 -2.3 113.8 -2.3 21.8 -8.7 37 -19.3 45.7 -10.5 8.5 -31.3 12.8 -62.2 12.8369l-15.1653 0 0 76.7 27.3 0c31.8289 0 55 -2.5 69.3 -7.8 20.8 -7.2 38 -19.2 51.7 -36 13.7 -17 22.7 -38.3 26.7 -64 4 -25.8 6.3 -68 6.7 -126.5 0.2 -58.7 3 -99 8.2 -121.3 5.3 -22.3 15.8 -40 31.5 -53 15.8 -13 36.3 -19.8 61.3 -20.5106z"/></glyph><glyph unicode="|" horiz-adv-x="259"><path d="M91.8423 -210.492l0 938.5 76.7 0 0 -938.5 -76.7 0z"/></glyph><glyph unicode="{" horiz-adv-x="334"><path d="M27.8402 298.832c24.9853 0.7 45.5 7.3 61.3 20.3 15.7 12.8 26.2 30.5 31.5 52.8 5.2 22.5 7.8 61 8.2 115.3 0.3 54.3 1.3 90.2 3 107.3 3 27.3 8.3 49.3 16.3 66 8 16.5 17.8 29.8 29.5 39.8 11.8 9.8 26.8 17.5 45 22.7 12.3 3.2 32.5 4.8 60.5 4.83913l27.334 0 0 -76.7 -15.2 0c-33.8334 0 -56.2 -6 -67.3 -18.3 -11 -12.2 -16.5 -39.3 -16.5 -81.7 0 -85.3 -1.8 -139.2 -5.5 -161.7 -5.8 -34.8 -15.8 -61.7 -30 -80.5 -14.2 -19 -36.3 -35.7 -66.7 -50.3 35.8 -15 61.8 -37.8 78 -68.7 16 -30.7 24.2 -81.2 24.2 -151.2 0 -63.3 0.5 -101.2 1.8 -113.2 2.7 -22.2 9.2 -37.7 19.8 -46.5 10.5 -8.7 31.3 -13.2 62.2 -13.1608l15.1653 0 0 -76.7 -27.3 0c-31.8289 0 -55 2.7 -69.3 7.8 -20.8 7.5 -38 19.7 -51.7 36.3 -13.7 16.8 -22.7 38 -26.7 63.8 -4 25.7 -6.3 67.8 -6.7 126.5 -0.3 58.5 -3 99 -8.2 121.5 -5.3 22.5 -15.8 40.2 -31.5 53.2 -15.8 13.2 -36.3 20 -61.3 20.4904l0 79.6736z"/></glyph><glyph unicode="z" horiz-adv-x="500"><path d="M19.4983 0l0 71.3 330.2 378.829c-37.4982 -2 -70.5 -2.8 -99.2 -2.83464l-211.505 0 0 71.2 423.8 0 0 -58 -280.7 -329.2 -54.2 -59.9931c39.3205 2.8 76.3 4.3 110.8 4.33295l239.669 0 0 -75.7 -459 0z"/></glyph><glyph unicode="y" horiz-adv-x="500"><path d="M61.9976 -199.66l-9.84025 82.488c19.3363 -5.2 36 -7.8 50.3 -7.8 19.5 0 35.2 3.3 46.8 9.8 11.8 6.5 21.3 15.5 28.8 27.3 5.7 8.7 14.5 30.5 26.8 65.3 1.7 5 4.3 12 7.8 21.5028l-196.683 519.5 94.7 0 108 -300.168c13.829 -38.2 26.5 -78.2 37.5 -120.2 10.2 40.3 22.2 79.7 36.2 118.164l110.834 302.2 87.8 0 -197.2 -527.324c-21.1586 -57 -37.7 -96.2 -49.3 -117.7 -15.7 -29 -33.5 -50.2 -53.7 -63.7 -20.3 -13.5 -44.3 -20.3 -72.3 -20.3 -17 0 -35.8 3.7 -56.7 10.8324z"/></glyph><glyph unicode="x" horiz-adv-x="500"><path d="M7.32957 0l189.496 269.5 -175.3 249 109.8 0 79.7 -121.505c14.8414 -23.2 27 -42.5 36 -58.2 14.3 21.5 27.5 40.5 39.7 57.1585l87.3271 122.5 105 0 -179.2 -244.2 192.8 -274.3 -107.8 0 -106.5 161.2 -28.3 43.5 -136.2 -204.7 -106.5 0z"/></glyph><glyph unicode="w" horiz-adv-x="722"><path d="M161.676 0l-158.679 518.5 90.8 0 82.5 -299.3 30.7 -111.32c1.31608 5.7 10.3 41.3 26.8 106.987l82.488 303.7 90.3 0 77.7 -300.7 26 -99.2 29.7 100.2 88.8 299.7 85.5 0 -162.2 -518.5 -91.2 0 -82.5 310.5 -20.2 88.5 -104.8 -399 -91.8 0z"/></glyph><glyph unicode="v" horiz-adv-x="500"><path d="M210.006 0l-197.331 518.5 92.8 0 111.3 -310.494c12.0067 -33.5 23 -68.3 33.2 -104.5 7.8 27.3 18.7 60.2 32.7 98.6657l115.329 316.3 90.3 0 -196.3 -518.5 -82 0z"/></glyph><glyph unicode="u" horiz-adv-x="556"><path d="M405.839 0l0 76.1708c-40.5151 -58.7 -95.3 -87.8 -164.7 -87.8 -30.5 0 -59.2 5.8 -85.7 17.5 -26.5 11.7 -46.2 26.5 -59 44.2 -13 17.8 -22 39.5 -27.2 65.2 -3.5 17.3 -5.3 44.7 -5.3 82.164l0 321.2 87.8 0 0 -287.493c0 -46 1.8 -76.8 5.3 -92.8 5.7 -23.2 17.3 -41.2 35.2 -54.5 18 -13.2 40.2 -19.7 66.5 -19.7 26.3 0 51 6.7 74.2 20.2 23.2 13.5 39.5 32 49 55.2 9.7 23.3 14.5 57.2 14.5 101.318l0 277.8 87.8 0 0 -518.5 -78.5 0z"/></glyph><glyph unicode="t" horiz-adv-x="277"><path d="M257.831 78.6612l12.6749 -77.6691c-24.6816 -5.2 -46.8 -7.8 -66.3 -7.8 -32 0 -56.7 5 -74.3 15.2 -17.5 10 -29.8 23.3 -37 39.8 -7.2 16.3 -10.8 51 -10.8 103.667l0 298.3 -64.5 0 0 68.3 64.5 0 0 128.5 87.5 52.7 0 -181.2 88.3 0 0 -68.3 -88.3 0 0 -303.165c0 -25.2 1.5 -41.2 4.5 -48.3 3.2 -7.2 8.2 -12.8 15.2 -17.2 7 -4.2 17 -6.3 30 -6.3 9.8 0 22.7 1.2 38.7 3.5028z"/></glyph><glyph unicode="s" horiz-adv-x="500"><path d="M30.8368 154.832l86.821 13.667c4.83913 -34.8 18.5 -61.5 40.8 -80.2 22.2 -18.5 53.3 -27.8 93.5 -27.8 40.3 0 70.3 8.3 89.8 24.7 19.5 16.5 29.3 35.8 29.3 57.8 0 20 -8.7 35.5 -26 47 -12 7.8 -42 17.7 -89.8 29.7 -64.3 16.3 -109.2 30.3 -134 42.3 -24.8 11.8 -43.8 28.3 -56.7 49.3 -12.8 21 -19.3 44.2 -19.3 69.5 0 23.2 5.3 44.5 16 64.2 10.5 19.8 25 36.2 43.2 49.2 13.7 10 32.3 18.7 55.8 25.7 23.7 7 49 10.5 76 10.5 40.7 0 76.3 -6 107.2 -17.7 30.8 -11.7 53.5 -27.5 68.2 -47.5 14.7 -20.2 24.7 -46.8 30.2 -80.3215l-85.8491 -11.8447c-3.98874 26.7 -15.3 47.5 -34 62.5 -18.7 15 -45.2 22.5 -79.3 22.5 -40.3 0 -69.2 -6.7 -86.3 -20 -17.3 -13.3 -26 -29 -26 -46.8 0 -11.5 3.7 -21.7 10.8 -30.8 7.2 -9.5 18.3 -17.2 33.7 -23.5 8.8 -3.2 34.7 -10.7 77.7 -22.3 62.2 -16.7 105.5 -30.2 130 -40.8 24.7 -10.5 44 -26 58 -46.2 14 -20.2 21 -45.2 21 -75.2 0 -29.3 -8.7 -56.8 -25.7 -82.8 -17.1 -25.8 -41.8 -45.8 -74 -60 -32.2 -14.2 -68.7 -21.2 -109.3 -21.2 -67.5 0 -118.8 14 -154.2 42 -35.3 28 -57.8 69.5 -67.5 124.501z"/></glyph><glyph unicode="r" horiz-adv-x="333"><path d="M64.9942 0l0 518.5 79 0 0 -78.4993c20.1664 36.7 38.8 61 56 72.7 17 11.7 35.8 17.7 56.3 17.7 29.7 0 59.7 -9.5 90.3 -28.3464l-30.3509 -81.6579c-21.3205 12.8 -42.8 19.2 -64.3 19.2 -19.3 0 -36.5 -5.8 -51.8 -17.3 -15.3 -11.7 -26.2 -27.7 -32.7 -48.2 -9.8 -31.2 -14.7 -65.3 -14.7 -102.492l0 -271.5 -87.8 0z"/></glyph><glyph unicode="q" horiz-adv-x="556"><path d="M396.505 -198.668l0 253.842c-13.667 -19.2 -32.8 -35.2 -57.3 -47.8 -24.7 -12.7 -50.8 -19 -78.5 -19 -61.5 0 -114.5 24.5 -158.8 73.7 -44.5 49.2 -66.7 116.5 -66.7 202.2 0 52 9 98.8 27.2 140.2 18 41.3 44.2 72.7 78.5 94 34.3 21.3 72 32 113 32 64.2 0 114.7 -27 151.5 -81.1719l0 69.3 79 0 0 -717.2 -87.8 0zm-271.012 459.333c0 -66.7 14 -116.7 42 -150 28 -33.5 61.5 -50.2 100.5 -50.2 37.5 0 69.7 15.8 96.7 47.7 27.2 31.7 40.7 80 40.7 144.8 0 69 -14.3 120.8 -42.8 155.7 -28.5 34.8 -61.8 52.3 -100.3 52.3 -38 0 -70.3 -16.3 -96.8 -48.7 -26.5 -32.3 -39.8 -82.8 -39.8 -151.673z"/></glyph><glyph unicode="p" horiz-adv-x="556"><path d="M66.0066 -198.668l0 717.2 80 0 0 -67.3227c18.8301 26.3 40.2 46.2 64 59.3 23.7 13.2 52.5 19.8 86.3 19.8 44.3 0 83.3 -11.5 117.2 -34.2 34 -22.8 59.5 -55 76.7 -96.5 17.3 -41.5 26 -87 26 -136.5 0 -53 -9.5 -100.9 -28.7 -143.4 -19 -42.5 -46.7 -75 -83 -97.7 -36.3 -22.5 -74.5 -33.8 -114.5 -33.8 -29.3 0 -55.5 6.2 -78.8 18.5 -23.3 12.4 -42.3 28 -57.3 46.8525l0 -252.3 -87.8 0zm79.4914 455c0 -66.7 13.5 -116 40.5 -148 27 -31.8 59.8 -47.8 98.2 -47.8 39 0 72.5 16.5 100.3 49.7 27.8 33 41.8 84.2 41.8 153.5 0 66.2 -13.7 115.5 -40.8 148.5 -27.2 32.8 -59.6 49.3 -97.3 49.3 -37.5 0 -70.7 -17.5 -99.5 -52.5 -28.8 -35 -43.2 -86 -43.2 -152.666z"/></glyph><glyph unicode="&#143;" horiz-adv-x="750"><path d="M125.008 0l0 625 500 0 0 -625 -500 0zm15.6513 15.6715l468.667 0 0 593.7 -468.7 0 0 -593.654z"/></glyph><glyph unicode="&#142;" horiz-adv-x="750"><path d="M125.008 0l0 625 500 0 0 -625 -500 0zm15.6513 15.6715l468.667 0 0 593.7 -468.7 0 0 -593.654z"/></glyph><glyph unicode="&#141;" horiz-adv-x="750"><path d="M125.008 0l0 625 500 0 0 -625 -500 0zm15.6513 15.6715l468.667 0 0 593.7 -468.7 0 0 -593.654z"/></glyph><glyph unicode="&#140;" horiz-adv-x="750"><path d="M125.008 0l0 625 500 0 0 -625 -500 0zm15.6513 15.6715l468.667 0 0 593.7 -468.7 0 0 -593.654z"/></glyph><glyph unicode="&#139;" horiz-adv-x="750"><path d="M125.008 0l0 625 500 0 0 -625 -500 0zm15.6513 15.6715l468.667 0 0 593.7 -468.7 0 0 -593.654z"/></glyph><glyph unicode="&#138;" horiz-adv-x="750"><path d="M125.008 0l0 625 500 0 0 -625 -500 0zm15.6513 15.6715l468.667 0 0 593.7 -468.7 0 0 -593.654z"/></glyph><glyph unicode="&#137;" horiz-adv-x="750"><path d="M125.008 0l0 625 500 0 0 -625 -500 0zm15.6513 15.6715l468.667 0 0 593.7 -468.7 0 0 -593.654z"/></glyph><glyph unicode="&#136;" horiz-adv-x="750"><path d="M125.008 0l0 625 500 0 0 -625 -500 0zm15.6513 15.6715l468.667 0 0 593.7 -468.7 0 0 -593.654z"/></glyph><glyph unicode="&#135;" horiz-adv-x="750"><path d="M125.008 0l0 625 500 0 0 -625 -500 0zm15.6513 15.6715l468.667 0 0 593.7 -468.7 0 0 -593.654z"/></glyph><glyph unicode="&#134;" horiz-adv-x="750"><path d="M125.008 0l0 625 500 0 0 -625 -500 0zm15.6513 15.6715l468.667 0 0 593.7 -468.7 0 0 -593.654z"/></glyph><glyph unicode="&#133;" horiz-adv-x="750"><path d="M125.008 0l0 625 500 0 0 -625 -500 0zm15.6513 15.6715l468.667 0 0 593.7 -468.7 0 0 -593.654z"/></glyph><glyph unicode="&#132;" horiz-adv-x="750"><path d="M125.008 0l0 625 500 0 0 -625 -500 0zm15.6513 15.6715l468.667 0 0 593.7 -468.7 0 0 -593.654z"/></glyph><glyph unicode="&#131;" horiz-adv-x="750"><path d="M125.008 0l0 625 500 0 0 -625 -500 0zm15.6513 15.6715l468.667 0 0 593.7 -468.7 0 0 -593.654z"/></glyph><glyph unicode="&#130;" horiz-adv-x="750"><path d="M125.008 0l0 625 500 0 0 -625 -500 0zm15.6513 15.6715l468.667 0 0 593.7 -468.7 0 0 -593.654z"/></glyph><glyph unicode="&#129;" horiz-adv-x="750"><path d="M125.008 0l0 625 500 0 0 -625 -500 0zm15.6513 15.6715l468.667 0 0 593.7 -468.7 0 0 -593.654z"/></glyph><glyph unicode="&#128;" horiz-adv-x="750"><path d="M125.008 0l0 625 500 0 0 -625 -500 0zm15.6513 15.6715l468.667 0 0 593.7 -468.7 0 0 -593.654z"/></glyph><glyph unicode="&#159;" horiz-adv-x="750"><path d="M125.008 0l0 625 500 0 0 -625 -500 0zm15.6513 15.6715l468.667 0 0 593.7 -468.7 0 0 -593.654z"/></glyph><glyph unicode="&#158;" horiz-adv-x="750"><path d="M125.008 0l0 625 500 0 0 -625 -500 0zm15.6513 15.6715l468.667 0 0 593.7 -468.7 0 0 -593.654z"/></glyph><glyph unicode="&#157;" horiz-adv-x="750"><path d="M125.008 0l0 625 500 0 0 -625 -500 0zm15.6513 15.6715l468.667 0 0 593.7 -468.7 0 0 -593.654z"/></glyph><glyph unicode="&#156;" horiz-adv-x="750"><path d="M125.008 0l0 625 500 0 0 -625 -500 0zm15.6513 15.6715l468.667 0 0 593.7 -468.7 0 0 -593.654z"/></glyph><glyph unicode="&#155;" horiz-adv-x="750"><path d="M125.008 0l0 625 500 0 0 -625 -500 0zm15.6513 15.6715l468.667 0 0 593.7 -468.7 0 0 -593.654z"/></glyph><glyph unicode="&#154;" horiz-adv-x="750"><path d="M125.008 0l0 625 500 0 0 -625 -500 0zm15.6513 15.6715l468.667 0 0 593.7 -468.7 0 0 -593.654z"/></glyph><glyph unicode="&#153;" horiz-adv-x="750"><path d="M125.008 0l0 625 500 0 0 -625 -500 0zm15.6513 15.6715l468.667 0 0 593.7 -468.7 0 0 -593.654z"/></glyph><glyph unicode="&#152;" horiz-adv-x="750"><path d="M125.008 0l0 625 500 0 0 -625 -500 0zm15.6513 15.6715l468.667 0 0 593.7 -468.7 0 0 -593.654z"/></glyph><glyph unicode="&#151;" horiz-adv-x="750"><path d="M125.008 0l0 625 500 0 0 -625 -500 0zm15.6513 15.6715l468.667 0 0 593.7 -468.7 0 0 -593.654z"/></glyph><glyph unicode="&#150;" horiz-adv-x="750"><path d="M125.008 0l0 625 500 0 0 -625 -500 0zm15.6513 15.6715l468.667 0 0 593.7 -468.7 0 0 -593.654z"/></glyph><glyph unicode="&#149;" horiz-adv-x="750"><path d="M125.008 0l0 625 500 0 0 -625 -500 0zm15.6513 15.6715l468.667 0 0 593.7 -468.7 0 0 -593.654z"/></glyph><glyph unicode="&#148;" horiz-adv-x="750"><path d="M125.008 0l0 625 500 0 0 -625 -500 0zm15.6513 15.6715l468.667 0 0 593.7 -468.7 0 0 -593.654z"/></glyph><glyph unicode="&#147;" horiz-adv-x="750"><path d="M125.008 0l0 625 500 0 0 -625 -500 0zm15.6513 15.6715l468.667 0 0 593.7 -468.7 0 0 -593.654z"/></glyph><glyph unicode="&#146;" horiz-adv-x="750"><path d="M125.008 0l0 625 500 0 0 -625 -500 0zm15.6513 15.6715l468.667 0 0 593.7 -468.7 0 0 -593.654z"/></glyph><glyph unicode="&#145;" horiz-adv-x="750"><path d="M125.008 0l0 625 500 0 0 -625 -500 0zm15.6513 15.6715l468.667 0 0 593.7 -468.7 0 0 -593.654z"/></glyph><glyph unicode="&#144;" horiz-adv-x="750"><path d="M125.008 0l0 625 500 0 0 -625 -500 0zm15.6513 15.6715l468.667 0 0 593.7 -468.7 0 0 -593.654z"/></glyph><glyph unicode="&#175;" horiz-adv-x="552"><path d="M-15.1653 764.664l0 63 582.5 0 0 -63 -582.5 0z"/></glyph><glyph unicode="&#174;" horiz-adv-x="736"><path d="M370.163 727.996c61.8356 0 122.2 -15.8 181.2 -47.5 58.8 -31.8 104.8 -77.2 137.7 -136.3 32.8 -59 49.3 -120.7 49.3 -184.8 0 -63.5 -16.2 -124.5 -48.7 -183 -32.3 -58.7 -77.8 -104.2 -136.2 -136.5 -58.5 -32.5 -119.5 -48.7 -183.3 -48.7 -63.8 0 -125 16.2 -183.3 48.7 -58.5 32.3 -104 77.8 -136.5 136.5 -32.7 58.5 -48.8 119.5 -48.8 183 0 64.2 16.5 125.8 49.5 184.8 33 59.2 79 104.5 138 136.3 58.8 31.7 119.3 47.5 181.2 47.5005zm0 -61.0055c-51.8334 0 -102.2 -13.3 -151.2 -39.8 -49 -26.5 -87.3 -64.5 -115 -113.7 -27.7 -49.3 -41.5 -100.7 -41.5 -154.2 0 -53 13.7 -103.8 40.8 -152.5 27.2 -48.7 65.2 -86.7 114 -113.8 48.8 -27.2 99.7 -40.8 152.8 -40.8 53 0 104 13.7 152.8 40.8 48.8 27.2 86.7 65.2 113.7 113.8 27 48.7 40.5 99.5 40.5 152.5 0 53.5 -13.7 104.8 -41.2 154.2 -27.5 49.2 -65.8 87.2 -115 113.7 -49.2 26.5 -99.5 39.8 -150.8 39.8267zm-161.655 -511.166l0 396.3 136.2 0c46.6703 0 80.3 -3.5 101.2 -10.8 20.8 -7.3 37.3 -20.2 49.8 -38.3 12.4 -18.3 18.5 -37.7 18.5 -58.2 0 -29 -10.3 -54.2 -31 -75.7 -20.7 -21.5 -48.2 -33.5 -82.3 -36.2 14 -5.9 25.3 -12.8 33.7 -21 16 -15.7 35.5 -41.8 58.7 -78.6612l48.3306 -77.5 -78.2 0 -35.2 62.5038c-27.6782 49 -49.8 79.8 -66.8 92.2 -11.7 9.2 -28.8 13.7 -51.3 13.667l-37.4982 0 0 -168.3 -64 0zm64.0021 223.005l77.6489 0c37.0123 0 62.3 5.7 75.8 16.7 13.5 11 20.3 25.7 20.3 44 0 11.7 -3.3 22.2 -9.8 31.5 -6.5 9.2 -15.5 16.2 -27 20.7 -11.7 4.7 -33 6.8 -64.3 6.82338l-72.6478 0 0 -119.662z"/></glyph><glyph unicode="&#173;" horiz-adv-x="333"><path d="M31.667 214.825l0 88.3 270.2 0 0 -88.3 -270.2 0z"/></glyph><glyph unicode="&#172;" horiz-adv-x="583"><path d="M528.336 207.01l-82.9942 0 0 213.8 -389.7 0 0 82.2 472.7 0 0 -295.997z"/></glyph><glyph unicode="&#171;" horiz-adv-x="556"><path d="M166.009 257.831l126.486 -222.7 -71.3 0 -155.7 222.7 155.7 222.7 72.3 0 -127.5 -222.661zm188.989 0l128.834 -222.7 -74.2 0 -152.8 222.7 152.8 222.7 74.2 0 -128.8 -222.661z"/></glyph><glyph unicode="&#170;" horiz-adv-x="370"><path d="M267.509 416.51c-39.685 -34.8 -81.3 -52.2 -125 -52.2 -36.7 0 -65.8 10 -87.3 30 -21.5 20 -32.2 45.7 -32.2 76.8 0 15.7 2.5 29.3 7.8 41 5.2 11.8 12.8 22.2 23.2 31.3 10.2 9 23.5 16.3 39.8 22 11.3 3.5 27.5 7 48.3 10.1845l71.6759 10.8324c23.5073 4.5 39.2 7.7 46.8 9.7 -0.2 22.8 -2.5 38.2 -6.8 46 -4.2 7.7 -12 14.5 -23.7 20.2 -11.5 5.7 -26.8 8.5 -46 8.5 -25.8 0 -45 -5.2 -57.7 -15.8 -12.7 -10.5 -20.5 -25.7 -23.5 -45.172l-66.8367 16.6636c3.84701 29 18.2 53.2 43 72.5 24.7 19.3 60 29 105.8 29 53.5 0 91.2 -9.8 113.3 -29.8 21.8 -20.2 32.7 -49.5 32.7 -88.3395l0 -117.2 -0.5 -29.8245c0 -43.5 6.7 -73.5 20.2 -89.8378l-72.3238 0c-6.49942 13 -10.2 27.5 -10.8 43.5117zm-7.16759 122.497c-17.3318 -4.5 -48.5 -10.3 -93.8 -17.5 -29.3 -4.5 -48.3 -11 -57.2 -19 -9 -8.5 -13.7 -19 -13.7 -31.3 0 -13.3 5.5 -24.7 16.7 -34.2 11 -9.5 26.7 -14.2 46.8 -14.2 23.8 0 44.5 6.3 62 19 17.7 12.8 29.3 28.3 35.2 47 2.3 6.5 3.7 23.2 4 50.1731z"/></glyph><glyph unicode="&#169;" horiz-adv-x="736"><path d="M370.163 727.996c61.8356 0 122.2 -15.8 181.2 -47.5 58.8 -31.8 104.8 -77.2 137.7 -136.3 32.8 -59 49.3 -120.7 49.3 -184.8 0 -63.5 -16.2 -124.5 -48.7 -183 -32.3 -58.7 -77.8 -104.2 -136.2 -136.5 -58.5 -32.5 -119.5 -48.7 -183.3 -48.7 -63.8 0 -125 16.2 -183.3 48.7 -58.5 32.3 -104 77.8 -136.5 136.5 -32.7 58.5 -48.8 119.5 -48.8 183 0 64.2 16.5 125.8 49.5 184.8 33 59.2 79 104.5 138 136.3 58.8 31.7 119.3 47.5 181.2 47.5005zm0 -61.0055c-51.8334 0 -102.2 -13.3 -151.2 -39.8 -49 -26.5 -87.3 -64.5 -115 -113.7 -27.7 -49.3 -41.5 -100.7 -41.5 -154.2 0 -53 13.7 -103.8 40.8 -152.5 27.2 -48.7 65.2 -86.7 114 -113.8 48.8 -27.2 99.7 -40.8 152.8 -40.8 53 0 104 13.7 152.8 40.8 48.8 27.2 86.7 65.2 113.7 113.8 27 48.7 40.5 99.5 40.5 152.5 0 53.5 -13.7 104.8 -41.2 154.2 -27.5 49.2 -65.8 87.2 -115 113.7 -49.2 26.5 -99.5 39.8 -150.8 39.8267zm118.164 -367.167l60.0134 -17.6558c-9.84025 -40.7 -30.5 -73.2 -62.2 -97.3 -31.8 -24.3 -70.3 -36.3 -115.5 -36.3 -57.3 0 -103.8 18.5 -139.7 55.7 -35.8 37 -53.8 88.5 -53.8 154.2 0 43 8.2 80.3 24.5 112.2 16.3 31.7 39.5 55.7 69.5 71.7 30.2 16.2 64.7 24.2 103.3 24.2 43.3 0 79.3 -10.3 108 -31 28.5 -20.7 48.2 -48.7 58.5 -84.1685l-58.1506 -14.1732c-9.67827 24.2 -24.2 42.5 -43.2 55.5 -19 12.8 -41.3 19.2 -67.2 19.2 -37.3 0 -68.2 -13.3 -92.5 -40 -24.2 -26.7 -36.3 -65 -36.3 -114.7 0 -49.8 11.5 -87.5 34.3 -113.2 23 -25.5 52.7 -38.3 89.2 -38.3 29.3 0 55 8.5 77.2 25.5 22.2 16.8 36.8 39.8 44 68.821z"/></glyph><glyph unicode="&#168;" horiz-adv-x="333"><path d="M29.8245 620.158l0 100 91.8 0 0 -100 -91.8 0zm182.004 0l0 100 91.8 0 0 -100 -91.8 0z"/></glyph><glyph unicode="&#167;" horiz-adv-x="556"><path d="M69.8334 -34.1574l88.3395 12.6546c9.15184 -42.3 23.7 -72 43.5 -89.2 19.8 -17 46.8 -25.5 81 -25.5 33.3 0 59.2 8.3 78 25.3 18.7 17 28 36.8 28 59.5 0 16.7 -5.8 32 -17.5 46 -20.3 24.3 -75.7 64.3 -166.2 119.7 -48.2 29.5 -81.7 52.7 -100.8 69.5 -19 16.8 -34.5 36.5 -46.5 59.3 -12.2 22.8 -18.2 46.5 -18.2 71.3 0 31.2 9.8 59.5 29.3 84.8 19.5 25.5 46.3 43.2 80.5 53.3 -23 22.2 -39.3 42.5 -48.7 61.3 -9.5 18.7 -14.2 38.5 -14.2 59.7 0 41.7 16.2 77.8 48.8 108.5 32.5 30.5 75.7 45.8 129.3 45.8 60.8 0 108.3 -14.5 142.5 -43.5 34.2 -28.8 54.6 -70.8 61.7 -125.838l-91.3361 -9.33406c-6.82338 39.7 -18.8 67.3 -36 83 -17 15.7 -40 23.5 -69 23.5 -30 0 -54.2 -8.2 -72.5 -24.2 -18.5 -16.2 -27.7 -34 -27.7 -53.5 0 -17 5.8 -32.7 17.7 -46.8 18.2 -22.2 68 -58 149.3 -107.5 51.2 -31.3 85.7 -54.2 103.5 -68.8 23.2 -19.5 40.2 -39.7 51 -60.5 11 -20.8 16.5 -43.5 16.5 -68 0 -36.7 -12 -68.2 -35.7 -94.2 -13.7 -15 -38.8 -30.2 -75.3 -45.5 26.2 -19.8 45.5 -41.2 58.5 -63.8 12.8 -22.8 19.2 -47.3 19.2 -73.3 0 -28.7 -8.2 -55.7 -24.3 -81.3 -16.3 -25.5 -39.7 -45 -70.3 -58.5 -30.7 -13.5 -63.7 -20.3 -99.2 -20.3 -62.2 0 -111.5 15.7 -147.8 46.7 -36.5 31.2 -58.3 74.3 -65.5 129.685zm285.671 153.334c23.9932 12.3 42 26.7 54 43.1 11.8 16.5 17.7 32.5 17.7 48.2 0 18.5 -8.3 38 -25.3 58.5 -17.2 20.5 -53.8 48 -109.8 82.5 -44.7 27.3 -77.9 49.8 -99.7 67.5 -26.3 -15 -45.2 -30 -56.3 -45 -11.2 -15 -16.8 -31.5 -16.8 -49.8 0 -20.5 7.5 -40 22.5 -58.5 14.8 -18.7 48.7 -43.3 101 -74.3 43.7 -25.7 81.2 -49.7 112.8 -72.1618z"/></glyph><glyph unicode="&#166;" horiz-adv-x="259"><path d="M168.499 727.996l0 -385.7 -76.7 0 0 385.7 76.7 0zm0 -552.167l0 -386.3 -76.7 0 0 386.3 76.7 0z"/></glyph><glyph unicode="&#165;" horiz-adv-x="556"><path d="M232.825 0l0 158.7 -202.5 0 0 67.8 202.5 0 0 69.8 -202.5 0 0 72.3 166.5 0 -198.3 347.2 97.7 0 141.7 -251.999c15.8335 -28.7 28.3 -53.7 37 -75.2 7.5 17.3 20.8 43.8 40.2 79.6736l133.653 247.5 104.5 0 -197.7 -347.2 166.5 0 0 -72.3 -201.2 0 0 -69.8 201.2 0 0 -67.8 -201.2 0 0 -158.7 -88 0z"/></glyph><glyph unicode="&#164;" horiz-adv-x="556"><path d="M103.991 469.173l-67.8289 66.5 56.2 58.2 67.8 -68.0111c34.5016 23.5 73 35.2 115.7 35.2 43 0 81.7 -11.7 115.8 -35.1698l67.8289 68 56.7 -58.2 -68 -66.4925c23.1631 -35.7 34.7 -74 34.7 -114.7 0 -41 -11.5 -79.5 -34.7 -115.167l67.9908 -66.5 -56.7 -58.2 -67.8 68.497c-34.1574 -23.8 -72.8 -35.7 -115.8 -35.7 -42.7 0 -81.2 11.8 -115.7 35.6557l-67.8289 -68.5 -56.2 58.2 67.8 66.4925c-23.1631 35.7 -34.7 74.2 -34.7 115.2 0 40.7 11.5 79 34.7 114.681zm45.01 -114.681c0 -35.1 12.3 -65.2 37 -89.8 24.8 -24.8 54.5 -37.2 89.3 -37.2 34.8 0 64.7 12.3 89.4 37.2 24.8 24.7 37.2 54.7 37.2 89.8 0 34.8 -12.3 64.7 -36.8 89.3 -24.7 24.8 -54.5 37.2 -89.7 37.2 -34.8 0 -64.5 -12.3 -89.3 -37.2 -24.7 -24.7 -37 -54.5 -37 -89.3316z"/></glyph><glyph unicode="&#163;" horiz-adv-x="556"><path d="M193.343 395.007l153.82 0 0 -72.2 -138.7 0c6.15522 -14.3 9.3 -28.7 9.3 -43 0 -28.3 -6.8 -58.3 -20.3 -89.8 -13.5 -31.7 -35.7 -63.8 -66.7 -96.7 25.7 7.2 49.2 10.7 70.3 10.7 27 0 57.5 -4 91.3 -12.1 56 -13.3 93.8 -20 113.8 -20 24 0 55.3 9 93.7 27.334l28.3261 -80.6657c-30.0067 -12.7 -53.2 -21 -69.7 -24.8 -16.3 -4 -32.7 -5.8 -49 -5.8 -13.7 0 -27.5 1.3 -41.5 3.8 -8.8 1.7 -29.8 7.7 -63.2 17.8 -33.5 10.3 -55 16.3 -64.8 18.3 -15.2 2.7 -30.5 3.8 -45.8 3.8 -23.5 0 -48.5 -4 -75 -12.2 -26.5 -8.2 -50.7 -19.2 -72.5 -33.1653l-33.6715 84.4925c31.343 17.2 57.8 41.8 79.7 74 21.8 32 32.7 71.2 32.7 117.3 0 19.8 -2.8 40 -8.3 60.6613l-95.6691 0 0 72.2 75.2 0c-10.6704 36.5 -17.5 63.2 -20.5 79.8 -3 16.8 -4.3 33.2 -4.3 49.2 0 67.7 25 120.5 75.2 158.7 40.3 30.2 89.2 45.3 146.5 45.3 58.8 0 107.5 -16.2 145.7 -48.5 38.3 -32.5 61.8 -78 70.7 -136.508l-87.4891 -13.1608c-4.83913 39 -19.5 69.8 -43.7 92.2 -24.3 22.5 -53.3 33.8 -87.2 33.8 -36.2 0 -66.2 -11.7 -90 -35 -24 -23.3 -36 -51.3 -36 -84.2 0 -36.2 9.3 -83.3 27.8 -141.651z"/></glyph><glyph unicode="&#162;" horiz-adv-x="556"><path d="M363.34 436.494l-108.506 -373.99c10.8324 -3 20.7 -4.3 29.8 -4.3 33.8 0 63 11.5 87.7 34.7 24.5 23 39.7 55.5 45.2 97.1674l87.3271 -9.84025c-10.6704 -60.2 -36.2 -107.5 -76.3 -142 -40.2 -34.7 -87.7 -51.8 -142.3 -51.8 -16 0 -32.7 2.3 -50.3 6.84363l-57.6849 -192.8 -54.6 15.7 56.2 194.335c-37.3362 17.8 -68 47.7 -91.8 89.5 -23.7 41.8 -35.7 94.2 -35.7 157 0 58 9.7 107.7 28.7 149.2 19 41.5 47.5 72.7 85.5 93.5 37.8 20.8 76.5 31.3 115.8 31.3 11.8 0 28 -1.3 48.8 -3.98874l55.154 189 53.8 -15.7 -54.7 -189.01c32.1732 -14 56.8 -32.7 74.2 -56.3 17.2 -23.7 29.3 -53.2 36.2 -88.6635l-85.4846 -13.1811c-8.50392 36.5 -24.2 64.3 -46.8 83.5004zm-51.8334 22.5151c-10.3464 1 -18.5 1.5 -24.3 1.5 -26.7 0 -51.7 -7.5 -75 -22.3 -23.3 -14.7 -40.7 -37.7 -52.3 -68.8 -11.5 -31 -17.3 -67.2 -17.3 -108.2 0 -42.8 5.3 -79.2 15.7 -108.8 10.5 -29.7 25.3 -51.5 44.5 -65.8446l108.83 372.512z"/></glyph><glyph unicode="&#161;" horiz-adv-x="333"><path d="M218.328 518.496l0 -100 -101.2 0 0 100 101.2 0zm-23.0011 -178.157l26.8481 -378.8 0 -158.8 -108.8 0 0 158.8 25.3 378.8 56.7 0z"/></glyph><glyph unicode="&#160;" horiz-adv-x="277"/><glyph unicode="&#191;" horiz-adv-x="610"><path d="M357.833 518.496l0 -100 -100 0 0 100 100 0zm-5.83126 -176.153c0.323959 -11.2 0.5 -19.3 0.5 -25 0 -35.8 -4.8 -66.2 -14.7 -91.3 -7.2 -18.8 -18.7 -37.8 -34.7 -57 -11.7 -14 -32.7 -34.3 -63.2 -61.2 -30.5 -26.7 -50.2 -48 -59.2 -63.8 -8.8 -16 -13.3 -33.5 -13.3 -52.3 0 -34.5 13.3 -64.7 40 -90.3 26.7 -25.7 59.5 -38.5 98.2 -38.5 37.2 0 68.3 11.7 93.5 35.2 25.2 23.3 41.9 59.8 49.5 109.336l89.8378 -10.3262c-7.99773 -66 -32.2 -117 -72.5 -152.8 -40.2 -35.7 -93.2 -53.7 -158.8 -53.7 -70.3 0 -126.3 19 -167.8 57.2 -41.5 38 -62.2 84.2 -62.2 138.2 0 31.5 7.2 60.3 21.7 86.5 14.5 26 43.2 57.8 85.7 95.7 29 25.7 48 44.5 56.7 56.7 8.8 12 15.3 25.8 19.3 41.5 4 15.5 6.5 41 7 76.1708l84.4925 0z"/></glyph><glyph unicode="&#190;" horiz-adv-x="833"><path d="M123.003 -27.8402l537.67 755.8 76.7 0 -537.7 -755.8 -76.7 0zm-106.846 481.504l71.1697 7.32957c6.49942 -19.7 15 -33 25.5 -40.2 14 -9.7 30.5 -14.5 49.8 -14.5 23 0 41.7 6.3 55.7 19 14 12.7 21 28 21 45.8 0 16.3 -6 29.3 -17.7 39.2 -11.7 9.7 -31.2 14.5 -58.5 14.5 -16.3 -0.8 -25.8 -1.3 -28.3 -1.33633l10.6704 53.6759c26.3419 -0.3 45.7 4.3 57.8 14.2 12.2 9.7 18.3 21.7 18.3 35.7 0 12 -4.8 22.3 -14.7 30.7 -9.7 8.5 -24.2 12.7 -43.5 12.7 -18.2 0 -32.3 -3.5 -42.7 -10.7 -10.2 -7.2 -19.2 -20.2 -26.7 -38.9965l-69.8334 11.1766c13.505 34.5 30.3 58.7 50.7 72.3 20.3 13.7 50 20.5 89 20.5 47 0 81 -8.8 102.3 -26.2 21.3 -17.5 32 -39.2 32 -65.2 0 -18 -5.8 -33.8 -17.3 -47.8 -11.5 -14 -28.2 -24.2 -50 -30.3 29 -7.2 50.3 -19 64 -35.3 13.7 -16.5 20.5 -35.8 20.5 -58 0 -30.1 -13 -56.5 -38.7 -79 -25.7 -22.5 -62.3 -33.7 -109.8 -33.7 -45.5 0 -80.3 9 -104.5 27 -24.2 18.2 -39.5 44 -46.3 77.5071zm681.67 -468.829l0 75.2 -186.7 0 0 60.2 197.3 231.3 60 0 0 -238.7 50.8 0 0 -52.8 -50.8 0 0 -75.2 -70.7 0zm0 128.004l0 128.3 -111.8 -128.3 111.8 0z"/></glyph><glyph unicode="&#189;" horiz-adv-x="833"><path d="M111.341 -27.8402l537.65 755.8 76.7 0 -537.7 -755.8 -76.7 0zm50.3351 385.673l0 270.668c-33.1855 -26.5 -69.7 -44.8 -109.5 -55.3362l0 60.1753c20.3487 6.5 42.7 18.3 67.5 35.7 24.7 17.2 44.7 35.8 60 55.6804l52.8255 0 0 -366.8 -70.8 0zm350.483 -372.998c2.00449 18.3 9.8 36.7 23.5 55.2 20.2 28.3 53.7 59.5 100.5 93.3 47 33.8 74.8 55.8 83.5 65.8 12.2 13.3 18.2 27 18.2 41 0 15.7 -5.7 28.5 -16.8 38.3 -11.3 10 -28.2 15 -50.7 15 -21.3 0 -37.5 -3.8 -48 -11.5 -10.7 -7.7 -19.3 -22.2 -26.2 -43.6737l-73.6601 7.32957c9.33406 36.3 25.8 63.2 49.3 80.3 23.3 17 56.7 25.5 100 25.5 49.2 0 85.2 -9.5 108.2 -28.7 23 -19.3 34.5 -42.7 34.5 -70.3 0 -27.3 -9.7 -53.3 -28.8 -77.7 -14.7 -18.3 -47.8 -46.3 -99.7 -84 -27.3 -19.8 -46.7 -35.5 -58 -46.8323l188.342 0 0 -59.2 -304.2 0z"/></glyph><glyph unicode="&#188;" horiz-adv-x="833"><path d="M123.003 -27.8402l538.156 755.8 76.2 0 -537.7 -755.8 -76.7 0zm38.6726 385.673l0 270.668c-33.1855 -26.5 -69.7 -44.8 -109.5 -55.3362l0 60.1753c20.3487 6.5 42.7 18.3 67.5 35.7 24.7 17.2 44.7 35.8 60 55.6804l52.8255 0 0 -366.8 -70.8 0zm536.496 -372.998l0 75.2 -187 0 0 60.2 197.8 231.3 59.5 0 0 -238.7 50.8 0 0 -52.8 -50.8 0 0 -75.2 -70.3 0zm0 128.004l0 128.3 -112.2 -128.3 112.2 0z"/></glyph><glyph unicode="&#187;" horiz-adv-x="556"><path d="M386.159 257.831l-127.316 222.7 72.2 0 155.8 -222.7 -155.8 -222.7 -71.7 0 126.8 222.661zm-188.827 0l-128.996 222.7 73.8 0 153.2 -222.7 -153.2 -222.7 -73.8 0 129 222.661z"/></glyph><glyph unicode="&#186;" horiz-adv-x="365"><path d="M182.166 727.996c47.1765 0 85.7 -16.2 115.5 -48.8 29.7 -32.5 44.7 -77.5 44.7 -134.7 0 -57 -15 -101.8 -45 -134.3 -29.8 -32.5 -68.2 -48.8 -114.7 -48.8 -47.2 0 -85.8 16 -115.8 47.8 -29.8 31.8 -44.8 76.3 -44.8 133.3 0 58.5 14.8 104.2 44.7 136.7 29.8 32.7 68.3 48.8 115.5 48.8368zm0 -64.8323c-26.3419 0 -47.7 -9.3 -63.8 -27.8 -16 -18.6 -24.2 -48.8 -24.2 -90.8 0 -41 8.3 -71.2 24.7 -90.2 16.5 -19 37.5 -28.5 63.3 -28.5 26 0 47.2 9.5 63.5 28.5 16.2 19 24.3 49.8 24.3 92.5 0 39.8 -8.2 69 -24.7 88 -16.3 18.8 -37.5 28.3 -63.2 28.3261z"/></glyph><glyph unicode="&#185;" horiz-adv-x="333"><path d="M161.676 357.833l0 270.668c-33.1855 -26.5 -69.7 -44.8 -109.5 -55.3362l0 60.1753c20.3487 6.5 42.7 18.3 67.5 35.7 24.7 17.2 44.7 35.8 60 55.6804l52.8255 0 0 -366.8 -70.8 0z"/></glyph><glyph unicode="&#184;" horiz-adv-x="333"><path d="M105.509 -75.1584l25.3295 86.3 65.5 0 -16.2 -52.1776c27.6782 -3.3 48.5 -11.8 62.5 -25.7 14 -13.8 21 -29.2 21 -46.2 0 -24.3 -11.7 -46 -35.2 -64.7 -23.5 -18.6 -58.7 -28 -106 -28 -26.7 0 -50 1.8 -70.3 5.83126l5.5073 57.1585c20.8346 -1.3 36.2 -2 45.8 -2 30.7 0 52.2 4.2 64.5 12.7 9.3 6.5 14.2 14.5 14.2 24 0 5.8 -1.8 11 -5.7 15.5 -3.7 4.7 -10.7 8.5 -20.7 11.8 -10.2 3.2 -27 5 -50.3 5.34532z"/></glyph><glyph unicode="&#183;" horiz-adv-x="277"><path d="M90.3238 302.173l0 100.2 100.2 0 0 -100.2 -100.2 0z"/></glyph><glyph unicode="&#182;" horiz-adv-x="537"><path d="M197.838 -198.668l0 510.174c-61.0055 3.3 -109 23 -144.3 59.3 -35.3 36.3 -53 82.7 -53 139 0 62.8 19.7 112.8 58.8 150 39.2 37.3 96.7 56 172.2 55.9841l308.996 0 0 -84.5 -70.3 0 0 -830 -83 0 0 830 -108.8 0 0 -830 -80.5 0z"/></glyph><glyph unicode="&#181;" horiz-adv-x="576"><path d="M496.993 518.496l0 -518.5 -78.5 0 0 61.4914c-16.9876 -26 -33.7 -44 -50.3 -53.7 -22.8 -13.3 -49.3 -20 -79.7 -20 -27 0 -50.8 5.3 -71.7 16 -15.7 8.2 -32.8 24.3 -51.8 48.3306l0 -250.8 -86.8 0 0 717.2 86.8 0 0 -219.664c0 -79.8 4.3 -131.5 12.7 -155 8.5 -23.7 22.3 -42.3 41.3 -56 19 -13.7 41 -20.5 65.7 -20.5 26 0 49.3 7.1 69.8 21.5 20.5 14.3 35 32.8 43.5 55.5 8.3 22.5 12.7 73.7 12.7 153.01l0 221.2 86.3 0z"/></glyph><glyph unicode="&#180;" horiz-adv-x="333"><path d="M108.324 583.004l65.0145 136.7 115.2 0 -107.3 -136.7 -72.9 0z"/></glyph><glyph unicode="&#179;" horiz-adv-x="333"><path d="M16.1574 453.664l71.1697 7.32957c6.49942 -19.7 15 -33 25.5 -40.2 14 -9.7 30.5 -14.5 49.8 -14.5 23 0 41.7 6.3 55.7 19 14 12.7 21 28 21 45.8 0 16.3 -6 29.3 -17.7 39.2 -11.7 9.7 -31.7 14.5 -60 14.5 -4 0 -9.3 -0.3 -16.2 -0.8 -4.5 -0.3 -8.2 -0.5 -10.7 -0.506186l10.6704 53.6759c26.3419 -0.3 45.7 4.3 57.8 14.2 12.2 9.7 18.3 21.7 18.3 35.7 0 12 -4.8 22.3 -14.7 30.7 -9.7 8.5 -24.2 12.7 -43.5 12.7 -18.2 0 -32.3 -3.5 -42.7 -10.7 -10.2 -7.2 -19.2 -20.2 -26.7 -38.9965l-69.8334 11.1766c13.505 34.5 30.3 58.7 50.7 72.3 20.3 13.7 50 20.5 89 20.5 47 0 81 -8.8 102.3 -26.2 21.3 -17.5 32 -39.2 32 -65.2 0 -18 -5.8 -33.8 -17.3 -47.8 -11.5 -14 -28.2 -24.2 -50 -30.3 29 -7.2 50.3 -19 64 -35.3 13.7 -16.5 20.5 -35.8 20.5 -58 0 -30.1 -13 -56.5 -38.7 -79 -25.7 -22.5 -62.3 -33.7 -109.8 -33.7 -45.5 0 -80.3 9 -104.5 27 -24.2 18.2 -39.5 44 -46.3 77.5071z"/></glyph><glyph unicode="&#178;" horiz-adv-x="333"><path d="M12.1687 357.833c2.00449 18.7 9.7 37.2 23 55.7 20.5 28 54.2 59 101 93.2 47 34 74.8 55.8 83.5 65.7 12.2 13.3 18.2 27 18.2 41 0 15.5 -5.7 28.5 -17.1 38.5 -11.3 10.2 -28.2 15.2 -50.3 15.2 -21.3 0 -37.5 -3.8 -48 -11.5 -10.7 -7.7 -19.3 -22.3 -26.2 -44.1596l-73.6804 7.83575c9.33406 36.2 25.8 62.7 49 79.8 23.3 17 56.8 25.7 100.3 25.7 49.2 0 85.2 -9.7 108.2 -28.8 23 -19.2 34.5 -42.7 34.5 -70.3 0 -27.3 -9.7 -53.2 -28.8 -77.7 -14.7 -18.2 -48 -46 -100.2 -83.5 -27 -19.8 -46.2 -35.7 -57.5 -47.3385l188.321 0 0 -59.2 -304.2 0z"/></glyph><glyph unicode="&#177;" horiz-adv-x="548"><path d="M232.825 126.992l0 196.7 -194.7 0 0 81.7 194.7 0 0 194.8 83.2 0 0 -194.8 194.7 0 0 -81.7 -194.7 0 0 -196.7 -83.2 0zm277.835 -126.992l-472.494 0 0 82 472.5 0 0 -82.0021z"/></glyph><glyph unicode="&#176;" horiz-adv-x="399"><path d="M62.5038 592.824c0 37.3 13.3 69.3 39.8 95.7 26.5 26.3 58.3 39.5 95.5 39.5 37.7 0 69.7 -13.2 96.2 -39.5 26.3 -26.3 39.5 -58.3 39.5 -95.7 0 -37.5 -13.3 -69.5 -39.8 -96 -26.5 -26.5 -58.5 -39.8 -95.8 -39.8 -37.2 0 -69 13.2 -95.5 39.5 -26.5 26.5 -39.8 58.5 -39.8 96.317zm53.1697 0c0 -22.8 8.2 -42.3 24.2 -58.3 16.2 -16.2 35.7 -24.2 58.3 -24.2 22.5 0 41.8 8 58 24.2 16 16 24.2 35.5 24.2 58.3 0 22.7 -8.2 42.2 -24.2 58.3 -16.2 16 -35.5 24.2 -58 24.2 -22.7 0 -42.2 -8.2 -58.3 -24.2 -16 -16.2 -24.2 -35.7 -24.2 -58.3328z"/></glyph><glyph unicode="&#207;" horiz-adv-x="277"><path d="M93.3406 0l0 715.8 94.7 0 0 -715.8 -94.7 0zm-91.3361 759.825l0 100 91.8 0 0 -100 -91.8 0zm182.004 0l0 100 91.8 0 0 -100 -91.8 0z"/></glyph><glyph unicode="&#206;" horiz-adv-x="277"><path d="M93.3406 0l0 715.8 94.7 0 0 -715.8 -94.7 0zm46.8323 842.839l-55.1742 -83 -100.7 0 105.5 136.7 93.8 0 109.8 -136.7 -99.7 0 -53.7 83.0144z"/></glyph><glyph unicode="&#205;" horiz-adv-x="277"><path d="M93.3406 0l0 715.8 94.7 0 0 -715.8 -94.7 0zm-24.4994 759.825l64.9942 136.7 115.2 0 -107.3 -136.7 -72.8 0z"/></glyph><glyph unicode="&#204;" horiz-adv-x="277"><path d="M93.3406 0l0 715.8 94.7 0 0 -715.8 -94.7 0zm116.483 759.825l-70.6635 0 -112.8 136.7 117.7 0 65.8 -136.67z"/></glyph><glyph unicode="&#203;" horiz-adv-x="666"><path d="M79.1674 0l0 715.8 517.5 0 0 -84.5 -422.8 0 0 -219.2 396 0 0 -84 -396 0 0 -243.7 439.5 0 0 -84.5 -534.2 0zm128.328 759.825l0 100 91.8 0 0 -100 -91.8 0zm182.004 0l0 100 91.8 0 0 -100 -91.8 0z"/></glyph><glyph unicode="&#202;" horiz-adv-x="666"><path d="M79.1674 0l0 715.8 517.5 0 0 -84.5 -422.8 0 0 -219.2 396 0 0 -84 -396 0 0 -243.7 439.5 0 0 -84.5 -534.2 0zm265.99 842.839l-55.154 -83 -100.7 0 105.5 136.7 93.8 0 109.8 -136.7 -99.7 0 -53.7 83.0144z"/></glyph><glyph unicode="&#201;" horiz-adv-x="666"><path d="M79.1674 0l0 715.8 517.5 0 0 -84.5 -422.8 0 0 -219.2 396 0 0 -84 -396 0 0 -243.7 439.5 0 0 -84.5 -534.2 0zm195.165 759.825l64.9942 136.7 115.2 0 -107.3 -136.7 -72.8 0z"/></glyph><glyph unicode="&#200;" horiz-adv-x="666"><path d="M79.1674 0l0 715.8 517.5 0 0 -84.5 -422.8 0 0 -219.2 396 0 0 -84 -396 0 0 -243.7 439.5 0 0 -84.5 -534.2 0zm335.824 759.825l-70.6635 0 -112.8 136.7 117.7 0 65.8 -136.67z"/></glyph><glyph unicode="&#199;" horiz-adv-x="722"><path d="M587.843 251.007l94.8187 -24.0134c-19.8222 -77.7 -55.7 -137 -107.2 -178 -51.7 -40.8 -114.7 -61.2 -189.3 -61.2 -77.2 0 -139.8 15.7 -188.2 47 -48.3 31.5 -85.2 77 -110.3 136.5 -25.2 59.7 -37.8 123.7 -37.8 192 0 74.5 14.2 139.5 42.7 195 28.5 55.5 69 97.7 121.7 126.5 52.5 28.8 110.3 43.2 173.5 43.2 71.7 0 131.9 -18.2 180.7 -54.7 48.8 -36.5 82.8 -87.7 102 -153.82l-93.1584 -22.0089c-16.6636 52.2 -40.7 90 -72.3 113.8 -31.5 23.8 -71.2 35.7 -119.2 35.7 -55 0 -100.8 -13.2 -137.8 -39.5 -37 -26.5 -63 -61.8 -77.8 -106.3 -15 -44.3 -22.5 -90.2 -22.5 -137.3 0 -61 8.8 -114 26.5 -159.5 17.8 -45.3 45.3 -79.3 82.8 -101.8 37.5 -22.5 78 -33.7 121.7 -33.7 53 0 97.8 15.3 134.7 45.8 36.8 30.7 61.7 76.2 74.7 136.346zm-285.003 -326.166l25.3295 86.3 65.5 0 -16.2 -52.1776c27.6782 -3.3 48.5 -11.8 62.5 -25.7 14 -13.8 21 -29.2 21 -46.2 0 -24.3 -11.7 -46 -35.2 -64.7 -23.5 -18.6 -58.7 -28 -106 -28 -26.7 0 -50 1.8 -70.3 5.83126l5.48705 57.1585c20.8346 -1.3 36.2 -2 45.8 -2 30.7 0 52.2 4.2 64.5 12.7 9.3 6.5 14.2 14.5 14.2 24 0 5.8 -1.8 11 -5.7 15.5 -3.7 4.7 -10.7 8.5 -20.7 11.8 -10.2 3.2 -27 5 -50.3 5.34532z"/></glyph><glyph unicode="&#198;" horiz-adv-x="1000"><path d="M0.506186 0l344.166 715.8 587.5 0 0 -84.5 -359.8 0 0 -220.2 334.3 0 0 -84 -334.3 0 0 -242.7 373 0 0 -84.5 -468.3 0 0 206.5 -276.3 0 -97.7 -206.5 -102.5 0zm240.155 290.51l236.348 0 0 340.8 -70.7 0 -165.7 -340.825z"/></glyph><glyph unicode="&#197;" horiz-adv-x="666"><path d="M-1.49831 0l275.001 715.8 102 0 293 -715.8 -108 0 -83.5 216.8 -299.3 0 -78.5 -216.8 -100.7 0zm206.503 293.993l242.827 0 -74.8 198.182c-22.6569 60.2 -39.7 109.7 -50.7 148.5 -9.2 -46 -22 -91.5 -38.7 -136.832l-78.6612 -209.844zm29.9864 487.841c0 23.8 8.7 44.3 26 61.5 17.5 17.3 38 25.8 61.8 25.8 24 0 44.8 -8.7 62 -26 17.3 -17.5 25.8 -38.5 25.8 -63.3 0 -25 -8.5 -46.2 -25.8 -63.5 -17.2 -17.2 -37.8 -25.8 -61.5 -25.8 -24.5 0 -45.3 8.7 -62.5 26.2 -17.3 17.4 -25.8 39.2 -25.8 65.1765zm37.0123 -0.506186c0 -15.3 5.2 -28.2 15.5 -38.5 10.2 -10.5 22.3 -15.7 36.3 -15.7 14 0 26.2 5.2 36.3 15.7 10.3 10.3 15.3 22.8 15.3 37.5 0 14.7 -5 27.2 -15 37.7 -10.2 10.3 -22.3 15.5 -36.7 15.5 -14 0 -26.2 -5 -36.3 -15.3 -10.3 -10.2 -15.5 -22.5 -15.5 -36.8301z"/></glyph><glyph unicode="&#196;" horiz-adv-x="666"><path d="M-1.49831 0l275.001 715.8 102 0 293 -715.8 -108 0 -83.5 216.8 -299.3 0 -78.5 -216.8 -100.7 0zm206.503 293.993l242.827 0 -74.8 198.182c-22.6569 60.2 -39.7 109.7 -50.7 148.5 -9.2 -46 -22 -91.5 -38.7 -136.832l-78.6612 -209.844zm-19.8425 465.832l0 100 91.8 0 0 -100 -91.8 0zm182.004 0l0 100 91.8 0 0 -100 -91.8 0z"/></glyph><glyph unicode="&#195;" horiz-adv-x="666"><path d="M-1.49831 0l275.001 715.8 102 0 293 -715.8 -108 0 -83.5 216.8 -299.3 0 -78.5 -216.8 -100.7 0zm206.503 293.993l242.827 0 -74.8 198.182c-22.6569 60.2 -39.7 109.7 -50.7 148.5 -9.2 -46 -22 -91.5 -38.7 -136.832l-78.6612 -209.844zm-34.5016 465.67c-0.344206 33.8 8.8 61 27.8 81.2 18.5 20.2 42.2 30.2 71.2 30.2 20.2 0 47.7 -8.7 82.5 -26.3 19.3 -9.8 34.5 -14.7 46 -14.7 10.3 0 18.3 2.8 23.8 8.5 5.7 5.8 9.5 17 11.8 33.9954l63.3339 0c-0.830144 -37.2 -10.3 -65 -28 -83.5 -17.7 -18.5 -40.3 -27.8 -67.7 -27.8 -20.5 0 -47.5 9.2 -81 27.3 -21.8 11.7 -37.8 17.7 -47.8 17.7 -11.2 0 -20 -4 -26.8 -11.8 -7.2 -7.8 -10.7 -19.3 -10.3 -34.6636l-64.8323 0z"/></glyph><glyph unicode="&#194;" horiz-adv-x="666"><path d="M-1.49831 0l275.001 715.8 102 0 293 -715.8 -108 0 -83.5 216.8 -299.3 0 -78.5 -216.8 -100.7 0zm206.503 293.993l242.827 0 -74.8 198.182c-22.6569 60.2 -39.7 109.7 -50.7 148.5 -9.2 -46 -22 -91.5 -38.7 -136.832l-78.6612 -209.844zm119.318 548.847l-55.154 -83 -100.7 0 105.5 136.7 93.8 0 109.8 -136.7 -99.7 0 -53.7 83.0144z"/></glyph><glyph unicode="&#193;" horiz-adv-x="666"><path d="M-1.49831 0l275.001 715.8 102 0 293 -715.8 -108 0 -83.5 216.8 -299.3 0 -78.5 -216.8 -100.7 0zm206.503 293.993l242.827 0 -74.8 198.182c-22.6569 60.2 -39.7 109.7 -50.7 148.5 -9.2 -46 -22 -91.5 -38.7 -136.832l-78.6612 -209.844zm59.163 465.832l64.9942 136.7 115.2 0 -107.3 -136.7 -72.8 0z"/></glyph><glyph unicode="&#192;" horiz-adv-x="666"><path d="M-1.49831 0l275.001 715.8 102 0 293 -715.8 -108 0 -83.5 216.8 -299.3 0 -78.5 -216.8 -100.7 0zm206.503 293.993l242.827 0 -74.8 198.182c-22.6569 60.2 -39.7 109.7 -50.7 148.5 -9.2 -46 -22 -91.5 -38.7 -136.832l-78.6612 -209.844zm197.331 465.832l-70.6635 0 -112.8 136.7 117.7 0 65.8 -136.67z"/></glyph><glyph unicode="&#223;" horiz-adv-x="610"><path d="M74.6725 0l0 487.841c0 59.5 7.3 105.3 21.8 137.3 14.5 32.2 38.7 57.3 72.5 75.5 33.8 18.2 71.8 27.3 114.2 27.3 56.3 0 100.7 -14 132.8 -42.2 32.2 -28.2 48.3 -60.8 48.3 -98 0 -16.5 -2.8 -33.7 -8.8 -51.2 -5.8 -17.7 -16.2 -39.5 -31.2 -65.7 -15 -26.3 -24.5 -44.5 -28.3 -54.7 -3.8 -10.3 -5.8 -19.3 -5.8 -27.2 0 -10.5 3.5 -20.7 10.7 -30.8 6.8 -10.3 26.5 -26.2 59.2 -47.3 44.2 -29 73.7 -52.2 88.3 -69.8 20.8 -25 31.3 -54.7 31.3 -88.8 0 -45.2 -16.8 -84 -50.2 -116.2 -33.3 -32.3 -76 -48.3 -128.2 -48.3 -41 0 -77 11 -107.8 33 -31 21.8 -54 50.2 -69.3 84.6747l75.6646 35.1495c16.1777 -30.3 32.5 -51.3 48.8 -63 16.2 -11.7 33.3 -17.7 51.2 -17.7 24.8 0 46 8.5 63.5 25.5 17.7 16.8 26.3 36.7 26.3 59.5 0 18.3 -5.2 33.8 -15.5 46.8 -6.8 8.5 -25.2 22.8 -54.7 43 -54.2 37.2 -87.5 65 -100.2 83.5 -13 18.5 -19.5 37.7 -19.5 57.2 0 12.7 2.2 25.5 6.5 38.5 4.5 13.2 15 34 31.8 62.5 16.7 28.7 27.7 50.2 33 64.5 5.2 14.3 7.7 27 7.7 38.2 0 20.2 -8.8 38 -26.5 53.4 -17.8 15.5 -41.5 23.3 -71 23.3 -34.8 0 -63.3 -10.8 -85.5 -32.3 -22.2 -21.5 -33.2 -68 -33.2 -139.667l0 -483.8 -88 0z"/></glyph><glyph unicode="&#222;" horiz-adv-x="666"><path d="M77.1629 0l0 715.8 94.7 0 0 -145.5 175.3 0c47.5005 0 84 -2.3 109.3 -6.8 35.2 -6.2 64.7 -17.5 88.5 -34 23.7 -16.3 42.7 -39.5 57 -69 14.3 -29.7 21.5 -62.2 21.5 -97.7 0 -60.7 -19.3 -112 -58 -154.2 -38.8 -42 -108.8 -63.2 -210 -63.172l-183.664 0 0 -145.5 -94.7 0zm94.677 229.99l185.163 0c61.1675 0 104.7 11.3 130.3 34.2 25.7 22.8 38.5 54.7 38.5 95.7 0 29.7 -7.5 55.2 -22.3 76.7 -15 21.5 -34.8 35.7 -59.7 42.5 -16 4.5 -45.5 6.8 -88.8 6.84363l-183.158 0 0 -255.846z"/></glyph><glyph unicode="&#221;" horiz-adv-x="666"><path d="M278.827 0l0 303.2 -275.8 412.7 115.2 0 141.2 -215.817c25.9977 -40.4 50.2 -80.7 72.7 -121.2 21.5 37.5 47.5 79.7 78.2 126.506l138.654 210.5 110.3 0 -285.7 -412.7 0 -303.2 -94.7 0zm-7.83575 759.825l65.0145 136.7 115.2 0 -107.3 -136.7 -72.9 0z"/></glyph><glyph unicode="&#220;" horiz-adv-x="722"><path d="M546.842 715.827l94.8187 0 0 -413.655c0 -71.8 -8.2 -129 -24.5 -171.3 -16.3 -42.3 -45.7 -76.7 -88.2 -103.2 -42.5 -26.7 -98.2 -39.8 -167.2 -39.8 -67 0 -122 11.5 -164.5 34.7 -42.7 23 -73.2 56.5 -91.3 100.3 -18.3 43.8 -27.3 103.5 -27.3 179.331l0 413.7 94.7 0 0 -413.169c0 -62.2 5.8 -108 17.3 -137.3 11.5 -29.5 31.5 -52.2 59.5 -68.2 28.2 -16 62.7 -24 103.3 -24 69.7 0 119.3 15.8 149 47.5 29.5 31.5 44.3 92.2 44.3 181.984l0 413.169zm-325.174 43.9977l0 100 91.8 0 0 -100 -91.8 0zm182.004 0l0 100 91.8 0 0 -100 -91.8 0z"/></glyph><glyph unicode="&#219;" horiz-adv-x="722"><path d="M546.842 715.827l94.8187 0 0 -413.655c0 -71.8 -8.2 -129 -24.5 -171.3 -16.3 -42.3 -45.7 -76.7 -88.2 -103.2 -42.5 -26.7 -98.2 -39.8 -167.2 -39.8 -67 0 -122 11.5 -164.5 34.7 -42.7 23 -73.2 56.5 -91.3 100.3 -18.3 43.8 -27.3 103.5 -27.3 179.331l0 413.7 94.7 0 0 -413.169c0 -62.2 5.8 -108 17.3 -137.3 11.5 -29.5 31.5 -52.2 59.5 -68.2 28.2 -16 62.7 -24 103.3 -24 69.7 0 119.3 15.8 149 47.5 29.5 31.5 44.3 92.2 44.3 181.984l0 413.169zm-187.511 127.012l-55.1742 -83 -100.7 0 105.5 136.7 93.8 0 109.8 -136.7 -99.7 0 -53.7 83.0144z"/></glyph><glyph unicode="&#218;" horiz-adv-x="722"><path d="M546.842 715.827l94.8187 0 0 -413.655c0 -71.8 -8.2 -129 -24.5 -171.3 -16.3 -42.3 -45.7 -76.7 -88.2 -103.2 -42.5 -26.7 -98.2 -39.8 -167.2 -39.8 -67 0 -122 11.5 -164.5 34.7 -42.7 23 -73.2 56.5 -91.3 100.3 -18.3 43.8 -27.3 103.5 -27.3 179.331l0 413.7 94.7 0 0 -413.169c0 -62.2 5.8 -108 17.3 -137.3 11.5 -29.5 31.5 -52.2 59.5 -68.2 28.2 -16 62.7 -24 103.3 -24 69.7 0 119.3 15.8 149 47.5 29.5 31.5 44.3 92.2 44.3 181.984l0 413.169zm-247.181 43.9977l65.0145 136.7 115.1 0 -107.3 -136.7 -72.8 0z"/></glyph><glyph unicode="&#217;" horiz-adv-x="722"><path d="M546.842 715.827l94.8187 0 0 -413.655c0 -71.8 -8.2 -129 -24.5 -171.3 -16.3 -42.3 -45.7 -76.7 -88.2 -103.2 -42.5 -26.7 -98.2 -39.8 -167.2 -39.8 -67 0 -122 11.5 -164.5 34.7 -42.7 23 -73.2 56.5 -91.3 100.3 -18.3 43.8 -27.3 103.5 -27.3 179.331l0 413.7 94.7 0 0 -413.169c0 -62.2 5.8 -108 17.3 -137.3 11.5 -29.5 31.5 -52.2 59.5 -68.2 28.2 -16 62.7 -24 103.3 -24 69.7 0 119.3 15.8 149 47.5 29.5 31.5 44.3 92.2 44.3 181.984l0 413.169zm-129.847 43.9977l-70.6635 0 -112.8 136.7 117.7 0 65.8 -136.67z"/></glyph><glyph unicode="&#216;" horiz-adv-x="777"><path d="M610.338 650.327l82.0021 91.8 48.3 -41 -85.8 -96.6612c27.9819 -41.7 46.8 -78.2 56.7 -109.3 13 -41 19.5 -87 19.5 -137.7 0 -73.3 -14.8 -138.7 -44.5 -195.8 -29.7 -57.3 -71.2 -100.7 -124.7 -130 -53.7 -29.2 -110.5 -43.8 -170.7 -43.8 -45 0 -85.7 6.3 -122.2 19 -28 9.8 -60.7 28.5 -98.2 56.1866l-82.0021 -91.8 -48.3 41 86 96.155c-32.0112 48.5 -53.3 90 -64 124.3 -10.7 34.3 -16.2 75.7 -16.2 123.8 0 73.5 14.7 139 44 196.5 29.3 57.5 70.3 101 123.3 130.7 52.8 29.5 111.7 44.3 176.5 44.3 43.7 0 81.8 -5.7 114.5 -17.3 32.7 -11.5 68 -31.7 105.7 -60.3373zm-58.5151 -65.8244c-30.6546 24 -57.5 40.5 -80.3 49.3 -23 8.7 -50 13.2 -80.8 13.2 -71.3 0 -130.2 -24.2 -176.8 -72.5 -46.5 -48.3 -69.8 -120.5 -69.8 -216.7 0 -37.7 3.7 -71.2 10.8 -100.5 5.2 -21.8 16 -48.7 32.7 -80.4835l364.332 407.662zm40.0089 -50.3351l-362.834 -406.163c25.0056 -20.5 48.2 -34.8 69.3 -43 27.7 -10.8 57.7 -16.2 89.8 -16.2 71 0 129.5 25 175.8 75.2 46.2 50.2 69.3 120.5 69.3 211 0 67.7 -13.8 127.5 -41.5 179.169z"/></glyph><glyph unicode="&#215;" horiz-adv-x="583"><path d="M78.6612 199.66l153.84 153.8 -153.3 153.3 59.5 59.5 153.3 -153.2 152.8 152.8 58.7 -59.2 -152.5 -152.8 153.3 -153.3 -59.5 -59.5 -153.3 153.3 -153.8 -153.8 -59 59.001z"/></glyph><glyph unicode="&#214;" horiz-adv-x="777"><path d="M48.3306 348.661c0 118.8 31.8 211.8 95.7 279 63.8 67.2 146.2 100.8 247.2 100.8 66 0 125.7 -15.8 178.7 -47.3 53 -31.7 93.5 -75.7 121.3 -132.2 27.8 -56.3 41.7 -120.5 41.7 -192 0 -72.7 -14.5 -137.7 -43.8 -194.8 -29.3 -57.3 -70.8 -100.7 -124.5 -130.2 -53.8 -29.5 -111.7 -44.2 -173.8 -44.2 -67.5 0 -127.7 16.2 -180.7 48.8 -53.2 32.5 -93.3 77 -120.7 133.3 -27.3 56.2 -41 115.8 -41 178.663zm97.6736 -1.49831c0 -86.3 23.2 -154.2 69.5 -203.8 46.5 -49.7 104.7 -74.5 174.7 -74.5 71.3 0 130 25 176 75.2 46 50.2 69.2 121.3 69.2 213.5 0 58.2 -10 109 -29.7 152.5 -19.7 43.5 -48.5 77.2 -86.3 101.2 -38 23.8 -80.5 35.8 -127.7 35.8 -67.2 0 -124.8 -23 -173.2 -69.2 -48.3 -46 -72.5 -123 -72.5 -230.679zm105.995 412.663l0 100 91.8 0 0 -100 -91.8 0zm182.004 0l0 100 91.8 0 0 -100 -91.8 0z"/></glyph><glyph unicode="&#213;" horiz-adv-x="777"><path d="M48.3306 348.661c0 118.8 31.8 211.8 95.7 279 63.8 67.2 146.2 100.8 247.2 100.8 66 0 125.7 -15.8 178.7 -47.3 53 -31.7 93.5 -75.7 121.3 -132.2 27.8 -56.3 41.7 -120.5 41.7 -192 0 -72.7 -14.5 -137.7 -43.8 -194.8 -29.3 -57.3 -70.8 -100.7 -124.5 -130.2 -53.8 -29.5 -111.7 -44.2 -173.8 -44.2 -67.5 0 -127.7 16.2 -180.7 48.8 -53.2 32.5 -93.3 77 -120.7 133.3 -27.3 56.2 -41 115.8 -41 178.663zm97.6736 -1.49831c0 -86.3 23.2 -154.2 69.5 -203.8 46.5 -49.7 104.7 -74.5 174.7 -74.5 71.3 0 130 25 176 75.2 46 50.2 69.2 121.3 69.2 213.5 0 58.2 -10 109 -29.7 152.5 -19.7 43.5 -48.5 77.2 -86.3 101.2 -38 23.8 -80.5 35.8 -127.7 35.8 -67.2 0 -124.8 -23 -173.2 -69.2 -48.3 -46 -72.5 -123 -72.5 -230.679zm81.6579 412.501c-0.323959 33.8 8.8 61 27.8 81.2 18.5 20.2 42.2 30.2 71.2 30.2 20.2 0 47.7 -8.7 82.5 -26.3 19.3 -9.8 34.5 -14.7 46 -14.7 10.3 0 18.3 2.8 23.8 8.5 5.7 5.8 9.5 17 11.8 33.9954l63.3339 0c-0.830144 -37.2 -10.3 -65 -28 -83.5 -17.7 -18.5 -40.3 -27.8 -67.7 -27.8 -20.5 0 -47.5 9.2 -81 27.3 -21.8 11.7 -37.8 17.7 -47.8 17.7 -11.2 0 -20 -4 -26.8 -11.8 -7.2 -7.8 -10.7 -19.3 -10.3 -34.6636l-64.8323 0z"/></glyph><glyph unicode="&#212;" horiz-adv-x="777"><path d="M48.3306 348.661c0 118.8 31.8 211.8 95.7 279 63.8 67.2 146.2 100.8 247.2 100.8 66 0 125.7 -15.8 178.7 -47.3 53 -31.7 93.5 -75.7 121.3 -132.2 27.8 -56.3 41.7 -120.5 41.7 -192 0 -72.7 -14.5 -137.7 -43.8 -194.8 -29.3 -57.3 -70.8 -100.7 -124.5 -130.2 -53.8 -29.5 -111.7 -44.2 -173.8 -44.2 -67.5 0 -127.7 16.2 -180.7 48.8 -53.2 32.5 -93.3 77 -120.7 133.3 -27.3 56.2 -41 115.8 -41 178.663zm97.6736 -1.49831c0 -86.3 23.2 -154.2 69.5 -203.8 46.5 -49.7 104.7 -74.5 174.7 -74.5 71.3 0 130 25 176 75.2 46 50.2 69.2 121.3 69.2 213.5 0 58.2 -10 109 -29.7 152.5 -19.7 43.5 -48.5 77.2 -86.3 101.2 -38 23.8 -80.5 35.8 -127.7 35.8 -67.2 0 -124.8 -23 -173.2 -69.2 -48.3 -46 -72.5 -123 -72.5 -230.679zm243.657 495.677l-55.154 -83 -100.7 0 105.5 136.7 93.8 0 109.8 -136.7 -99.7 0 -53.7 83.0144z"/></glyph><glyph unicode="&#211;" horiz-adv-x="777"><path d="M48.3306 348.661c0 118.8 31.8 211.8 95.7 279 63.8 67.2 146.2 100.8 247.2 100.8 66 0 125.7 -15.8 178.7 -47.3 53 -31.7 93.5 -75.7 121.3 -132.2 27.8 -56.3 41.7 -120.5 41.7 -192 0 -72.7 -14.5 -137.7 -43.8 -194.8 -29.3 -57.3 -70.8 -100.7 -124.5 -130.2 -53.8 -29.5 -111.7 -44.2 -173.8 -44.2 -67.5 0 -127.7 16.2 -180.7 48.8 -53.2 32.5 -93.3 77 -120.7 133.3 -27.3 56.2 -41 115.8 -41 178.663zm97.6736 -1.49831c0 -86.3 23.2 -154.2 69.5 -203.8 46.5 -49.7 104.7 -74.5 174.7 -74.5 71.3 0 130 25 176 75.2 46 50.2 69.2 121.3 69.2 213.5 0 58.2 -10 109 -29.7 152.5 -19.7 43.5 -48.5 77.2 -86.3 101.2 -38 23.8 -80.5 35.8 -127.7 35.8 -67.2 0 -124.8 -23 -173.2 -69.2 -48.3 -46 -72.5 -123 -72.5 -230.679zm184.495 412.663l64.9942 136.7 115.2 0 -107.3 -136.7 -72.8 0z"/></glyph><glyph unicode="&#210;" horiz-adv-x="777"><path d="M48.3306 348.661c0 118.8 31.8 211.8 95.7 279 63.8 67.2 146.2 100.8 247.2 100.8 66 0 125.7 -15.8 178.7 -47.3 53 -31.7 93.5 -75.7 121.3 -132.2 27.8 -56.3 41.7 -120.5 41.7 -192 0 -72.7 -14.5 -137.7 -43.8 -194.8 -29.3 -57.3 -70.8 -100.7 -124.5 -130.2 -53.8 -29.5 -111.7 -44.2 -173.8 -44.2 -67.5 0 -127.7 16.2 -180.7 48.8 -53.2 32.5 -93.3 77 -120.7 133.3 -27.3 56.2 -41 115.8 -41 178.663zm97.6736 -1.49831c0 -86.3 23.2 -154.2 69.5 -203.8 46.5 -49.7 104.7 -74.5 174.7 -74.5 71.3 0 130 25 176 75.2 46 50.2 69.2 121.3 69.2 213.5 0 58.2 -10 109 -29.7 152.5 -19.7 43.5 -48.5 77.2 -86.3 101.2 -38 23.8 -80.5 35.8 -127.7 35.8 -67.2 0 -124.8 -23 -173.2 -69.2 -48.3 -46 -72.5 -123 -72.5 -230.679zm301.16 412.663l-70.6635 0 -112.8 136.7 117.7 0 65.8 -136.67z"/></glyph><glyph unicode="&#209;" horiz-adv-x="722"><path d="M76.1708 0l0 715.8 97.2 0 376 -562 0 562 90.8 0 0 -715.8 -97.2 0 -376 562.5 0 -562.5 -90.8 0zm133.835 759.663c-0.344206 33.8 8.8 61 27.8 81.2 18.5 20.2 42.2 30.2 71.2 30.2 20.2 0 47.7 -8.7 82.5 -26.3 19.3 -9.8 34.5 -14.7 46 -14.7 10.3 0 18.3 2.8 23.8 8.5 5.7 5.8 9.5 17 11.8 33.9954l63.3339 0c-0.830144 -37.2 -10.3 -65 -28 -83.5 -17.7 -18.5 -40.3 -27.8 -67.7 -27.8 -20.5 0 -47.5 9.2 -81 27.3 -21.8 11.7 -37.8 17.7 -47.8 17.7 -11.2 0 -20 -4 -26.8 -11.8 -7.2 -7.8 -10.7 -19.3 -10.3 -34.6636l-64.8323 0z"/></glyph><glyph unicode="&#208;" horiz-adv-x="722"><path d="M77.1629 0l0 325.7 -78.7 0 0 64.5 78.7 0 0 325.7 247 0c55.3362 0 97.7 -3.5 127 -10.3 41 -9.3 76 -26.5 105 -51.2 37.7 -32 66 -72.7 84.7 -122.3 18.8 -49.7 28.2 -106.3 28.2 -170.2 0 -73 -11.7 -135.7 -34.7 -188.2 -23.2 -52.7 -50.8 -90.8 -83 -114.7 -32.3 -23.7 -69.3 -40.7 -111.3 -50.7 -23.2 -5.5 -58 -8.3 -104.5 -8.34194l-258.337 0zm94.677 84.4925l152.828 0c47.5005 0 84.7 4.3 111.3 13.2 26.7 8.8 47.8 21 63.5 36.7 22.5 22.3 40 52.5 52.7 90.3 12.8 37.7 19.2 83.8 19.2 138.2 0 56 -6.3 100.7 -18.9 134.2 -12.5 33.7 -28.8 60.5 -49 80.7 -20.3 20.2 -42.7 34.2 -67.5 42 -24.7 7.8 -62.7 11.7 -113.7 11.6625l-150.499 0 0 -241.2 197.3 0 0 -64.5 -197.3 0 0 -241.167z"/></glyph><glyph unicode="&#239;" horiz-adv-x="277"><path d="M96.6612 0l0 518.5 87.8 0 0 -518.5 -87.8 0zm-92.1663 620.158l0 100 91.8 0 0 -100 -91.8 0zm182.004 0l0 100 91.8 0 0 -100 -91.8 0z"/></glyph><glyph unicode="&#238;" horiz-adv-x="277"><path d="M96.6612 0l0 518.5 87.8 0 0 -518.5 -87.8 0zm50.8413 665.999l-55.1742 -83 -100.7 0 105.5 136.7 93.8 0 109.8 -136.7 -99.7 0 -53.7 82.9942z"/></glyph><glyph unicode="&#237;" horiz-adv-x="277"><path d="M96.6612 0l0 518.5 87.8 0 0 -518.5 -87.8 0zm-4.49493 583.004l64.9942 136.7 115.2 0 -107.3 -136.7 -72.8 0z"/></glyph><glyph unicode="&#236;" horiz-adv-x="277"><path d="M96.6612 0l0 518.5 87.8 0 0 -518.5 -87.8 0zm104.011 583.004l-70.6635 0 -112.8 136.7 117.7 0 65.8 -136.67z"/></glyph><glyph unicode="&#235;" horiz-adv-x="556"><path d="M420.843 167.001l90.8299 -11.1766c-14.3352 -53.1 -40.8 -94.3 -79.5 -123.7 -38.8 -29.2 -88.3 -43.8 -148.5 -43.8 -75.8 0 -136 23.3 -180.3 70 -44.5 46.7 -66.7 112.2 -66.7 196.5 0 87.3 22.5 155 67.3 203.2 45 48.2 103.2 72.3 174.8 72.3 69.3 0 126 -23.7 169.8 -70.8 44 -47.2 66 -113.7 66 -199.2 0 -5.3 -0.2 -13.2 -0.5 -23.5073l-386.665 0c3.1586 -57 19.3 -100.7 48.3 -130.8 29 -30.3 65 -45.5 108.3 -45.5 32.2 0 59.7 8.5 82.5 25.5 22.8 16.8 40.8 43.8 54.2 81.0099zm-288.506 142.157l289.498 0c-3.82676 43.5 -15 76.3 -33.2 98 -28 33.8 -64.3 50.8 -108.8 50.8 -40.3 0 -74.3 -13.5 -101.8 -40.5 -27.5 -27 -42.7 -63.2 -45.7 -108.344zm6.33744 311l0 100 91.8 0 0 -100 -91.8 0zm181.984 0l0 100 91.8 0 0 -100 -91.8 0z"/></glyph><glyph unicode="&#234;" horiz-adv-x="556"><path d="M420.843 167.001l90.8299 -11.1766c-14.3352 -53.1 -40.8 -94.3 -79.5 -123.7 -38.8 -29.2 -88.3 -43.8 -148.5 -43.8 -75.8 0 -136 23.3 -180.3 70 -44.5 46.7 -66.7 112.2 -66.7 196.5 0 87.3 22.5 155 67.3 203.2 45 48.2 103.2 72.3 174.8 72.3 69.3 0 126 -23.7 169.8 -70.8 44 -47.2 66 -113.7 66 -199.2 0 -5.3 -0.2 -13.2 -0.5 -23.5073l-386.665 0c3.1586 -57 19.3 -100.7 48.3 -130.8 29 -30.3 65 -45.5 108.3 -45.5 32.2 0 59.7 8.5 82.5 25.5 22.8 16.8 40.8 43.8 54.2 81.0099zm-288.506 142.157l289.498 0c-3.82676 43.5 -15 76.3 -33.2 98 -28 33.8 -64.3 50.8 -108.8 50.8 -40.3 0 -74.3 -13.5 -101.8 -40.5 -27.5 -27 -42.7 -63.2 -45.7 -108.344zm144.506 356.841l-55.1742 -83 -100.7 0 105.5 136.7 93.8 0 109.8 -136.7 -99.7 0 -53.7 82.9942z"/></glyph><glyph unicode="&#233;" horiz-adv-x="556"><path d="M420.843 167.001l90.8299 -11.1766c-14.3352 -53.1 -40.8 -94.3 -79.5 -123.7 -38.8 -29.2 -88.3 -43.8 -148.5 -43.8 -75.8 0 -136 23.3 -180.3 70 -44.5 46.7 -66.7 112.2 -66.7 196.5 0 87.3 22.5 155 67.3 203.2 45 48.2 103.2 72.3 174.8 72.3 69.3 0 126 -23.7 169.8 -70.8 44 -47.2 66 -113.7 66 -199.2 0 -5.3 -0.2 -13.2 -0.5 -23.5073l-386.665 0c3.1586 -57 19.3 -100.7 48.3 -130.8 29 -30.3 65 -45.5 108.3 -45.5 32.2 0 59.7 8.5 82.5 25.5 22.8 16.8 40.8 43.8 54.2 81.0099zm-288.506 142.157l289.498 0c-3.82676 43.5 -15 76.3 -33.2 98 -28 33.8 -64.3 50.8 -108.8 50.8 -40.3 0 -74.3 -13.5 -101.8 -40.5 -27.5 -27 -42.7 -63.2 -45.7 -108.344zm94.6567 273.846l65.0145 136.7 115.2 0 -107.4 -136.7 -72.8 0z"/></glyph><glyph unicode="&#232;" horiz-adv-x="556"><path d="M420.843 167.001l90.8299 -11.1766c-14.3352 -53.1 -40.8 -94.3 -79.5 -123.7 -38.8 -29.2 -88.3 -43.8 -148.5 -43.8 -75.8 0 -136 23.3 -180.3 70 -44.5 46.7 -66.7 112.2 -66.7 196.5 0 87.3 22.5 155 67.3 203.2 45 48.2 103.2 72.3 174.8 72.3 69.3 0 126 -23.7 169.8 -70.8 44 -47.2 66 -113.7 66 -199.2 0 -5.3 -0.2 -13.2 -0.5 -23.5073l-386.665 0c3.1586 -57 19.3 -100.7 48.3 -130.8 29 -30.3 65 -45.5 108.3 -45.5 32.2 0 59.7 8.5 82.5 25.5 22.8 16.8 40.8 43.8 54.2 81.0099zm-288.506 142.157l289.498 0c-3.82676 43.5 -15 76.3 -33.2 98 -28 33.8 -64.3 50.8 -108.8 50.8 -40.3 0 -74.3 -13.5 -101.8 -40.5 -27.5 -27 -42.7 -63.2 -45.7 -108.344zm202.494 273.846l-70.6635 0 -112.8 136.7 117.7 0 65.8 -136.67z"/></glyph><glyph unicode="&#231;" horiz-adv-x="500"><path d="M404.341 190.002l86.335 -11.3386c-9.33406 -59.5 -33.5 -106.2 -72.5 -139.8 -38.8 -33.7 -86.7 -50.5 -143.3 -50.5 -70.8 0 -128 23.2 -171 69.5 -43.2 46.3 -64.8 112.8 -64.8 199.5 0 56 9.3 105 27.8 147 18.7 42 46.8 73.5 84.8 94.5 37.8 21 79.2 31.5 123.7 31.5 56.3 0 102.5 -14.3 138.2 -42.8 35.8 -28.5 58.8 -68.8 69 -121.323l-85.5049 -13.1811c-8.15971 34.8 -22.5 61 -43.2 78.7 -20.7 17.5 -45.7 26.3 -75 26.3 -44.3 0 -80.3 -15.8 -108 -47.7 -27.7 -31.7 -41.5 -81.8 -41.5 -150.5 0 -69.7 13.3 -120.3 40.2 -152 26.7 -31.5 61.5 -47.3 104.5 -47.3 34.5 0 63.2 10.7 86.3 31.8 23.2 21.2 37.8 53.7 44 97.6736zm-203.669 -255.34l25.3295 86.3 65.5 0 -16.2 -52.1574c27.6782 -3.3 48.5 -11.8 62.5 -25.7 14 -13.8 21 -29.2 21 -46.2 0 -24.3 -11.7 -46 -35.1 -64.7 -23.5 -18.7 -58.7 -28 -106 -28 -26.7 0 -50 1.8 -70.3 5.83126l5.48705 57.1787c20.8346 -1.3 36.2 -2 45.8 -2 30.7 0 52.2 4.2 64.5 12.7 9.3 6.5 14.2 14.5 14.2 24 0 5.8 -1.8 11 -5.7 15.5 -3.7 4.7 -10.7 8.5 -20.7 11.8 -10.2 3.2 -27 5 -50.3 5.32507z"/></glyph><glyph unicode="&#230;" horiz-adv-x="889"><path d="M846.666 158.659c-16.3397 -54.3 -44 -96.3 -83 -126 -39 -29.5 -87.5 -44.3 -145.5 -44.3 -41.3 0 -77.5 7.8 -108.7 23.3 -31 15.7 -59.2 40.2 -84.2 73.3 -33.8 -33.2 -68.2 -57.7 -102.8 -73.3 -34.7 -15.5 -72 -23.3 -112 -23.3 -56 0 -99.5 14.3 -130.7 43.2 -31.2 28.8 -46.7 63.8 -46.7 105.2 0 28 8.2 54.3 24.2 78.8 16.2 24.7 38.7 43.3 67.5 56 28.7 12.7 74.7 23.2 137.8 31.2 48.8 6.5 89.8 14.5 123 24 0.3 8.2 0.5 14.8 0.5 20 0 41 -8.5 69.8 -25.5 86.2 -17.2 16.5 -47 24.7 -89.7 24.7 -28.3 0 -52.2 -3.3 -71.8 -10.2 -19.5 -6.8 -33.8 -16.7 -43.2 -29.2 -9.3 -12.5 -17 -32.7 -23.2 -60.3373l-85.5049 10.3262c9.15184 38.2 22.2 68.3 39.3 90.5 17.2 22.3 41.7 39.8 73.5 52.5 31.8 12.8 69.2 19.2 111.8 19.2 54.3 0 98.2 -8.2 131.3 -24.5 19.2 -9.3 35.3 -24.5 48.3 -45.3 20.8 22.7 44.5 40 70.8 52 26.3 11.8 58.2 17.8 95.7 17.8 52.7 0 96.3 -12.8 130.8 -38.3 34.5 -25.7 59.8 -59.3 75.7 -101.3 16 -42 24 -83.3 24 -124 0 -6.2 -0.3 -16.2 -1 -29.8245l-374.496 0c0.668165 -46.8 6.3 -80.8 17.3 -102 10.8 -21.2 28.3 -38.8 52.2 -53 24 -14.2 50.3 -21.3 79 -21.3 33.5 0 61.8 9.7 85.2 28.8 23.2 19.2 39.3 46.2 48 81.0099l91.8423 -11.6828zm-373.504 150.499l285.165 0c-4.65691 51.3 -19.2 89 -44 112.7 -24.7 23.8 -57 35.7 -96.7 35.7 -41 0 -74.7 -13 -100.8 -39 -26.2 -26 -40.8 -62.5 -43.7 -109.336zm-85.9908 -48.8165c-25.6737 -11.2 -78.2 -23 -157.2 -35.7 -35.5 -5.7 -60.3 -13.8 -74.7 -25 -19.3 -15.3 -28.8 -35.3 -28.8 -60 0 -23.2 8.7 -42.5 25.8 -58.3 17.3 -15.8 42.3 -23.7 75.2 -23.7 37.5 0 70.2 9.2 98 27.8 27.8 18.5 46 41.7 54.3 69.3 5 16.8 7.3 52 7.3 105.509z"/></glyph><glyph unicode="&#229;" horiz-adv-x="556"><path d="M404.341 64.0021c-32.6793 -27.7 -64 -47.2 -94 -58.7 -30.2 -11.3 -62.5 -17 -97 -17 -57 0 -100.7 13.8 -131.3 41.7 -30.5 27.8 -45.8 63.5 -45.8 106.7 0 25.5 5.7 48.7 17.3 69.7 11.5 21 26.7 37.8 45.3 50.5 18.8 12.7 39.8 22.3 63.3 28.8 17.2 4.5 43.2 9 78 13.2 71 8.5 123.3 18.5 156.8 30.3 0.3 12 0.5 19.7 0.5 22.8 0 35.8 -8.3 61.2 -25 75.7 -22.3 20 -55.8 29.8 -100 29.8 -41.3 0 -71.8 -7.1 -91.7 -21.7 -19.7 -14.5 -34.2 -40.2 -43.7 -77.001l-85.8491 11.8447c7.83575 36.7 20.7 66.5 38.5 89 17.8 22.7 43.8 40.2 77.7 52.3 33.8 12.2 73 18.3 117.7 18.3 44.3 0 80.2 -5.3 107.8 -15.7 27.7 -10.5 48 -23.5 61.2 -39.3 13 -15.8 22 -35.7 27.3 -59.8 2.8 -15 4.3 -42 4.3 -80.9897l0 -117.172c0 -81.8 1.8 -133.5 5.7 -155 3.7 -21.7 11.2 -42.5 22.2 -62.3418l-91.8221 0c-9.0101 18.2 -15 39.5 -17.5 64.0021zm-7.34981 196.339c-31.9909 -13.2 -79.8 -24.2 -143.5 -33.3 -36.2 -5.2 -61.8 -11 -76.7 -17.5 -15 -6.5 -26.7 -16 -34.7 -28.7 -8.2 -12.5 -12.3 -26.3 -12.3 -41.7 0 -23.5 9 -43 26.7 -58.7 17.7 -15.5 43.7 -23.3 77.8 -23.3 33.8 0 64 7.3 90.3 22.2 26.3 14.8 45.8 35.2 58.2 60.8 9.5 19.8 14.2 49.2 14.2 87.8333l0 32.3351zm-209.986 392.982c0 23.9 8.7 44.3 26 61.5 17.5 17.3 38 25.8 61.8 25.8 24 0 44.8 -8.7 62 -26 17.3 -17.5 25.8 -38.5 25.8 -63.3 0 -25 -8.5 -46.2 -25.8 -63.5 -17.2 -17.2 -37.8 -25.8 -61.5 -25.8 -24.5 0 -45.3 8.7 -62.5 26.2 -17.3 17.3 -25.8 39.2 -25.8 65.1562zm36.992 -0.485938c0 -15.3 5.2 -28.2 15.5 -38.5 10.2 -10.5 22.3 -15.7 36.3 -15.7 14 0 26.2 5.2 36.3 15.7 10.3 10.3 15.3 22.8 15.3 37.5 0 14.7 -5 27.2 -15 37.7 -10.2 10.3 -22.3 15.5 -36.7 15.5 -14 0 -26.2 -5 -36.3 -15.3 -10.3 -10.2 -15.5 -22.5 -15.5 -36.8301z"/></glyph><glyph unicode="&#228;" horiz-adv-x="556"><path d="M404.341 64.0021c-32.6793 -27.7 -64 -47.2 -94 -58.7 -30.2 -11.3 -62.5 -17 -97 -17 -57 0 -100.7 13.8 -131.3 41.7 -30.5 27.8 -45.8 63.5 -45.8 106.7 0 25.5 5.7 48.7 17.3 69.7 11.5 21 26.7 37.8 45.3 50.5 18.8 12.7 39.8 22.3 63.3 28.8 17.2 4.5 43.2 9 78 13.2 71 8.5 123.3 18.5 156.8 30.3 0.3 12 0.5 19.7 0.5 22.8 0 35.8 -8.3 61.2 -25 75.7 -22.3 20 -55.8 29.8 -100 29.8 -41.3 0 -71.8 -7.1 -91.7 -21.7 -19.7 -14.5 -34.2 -40.2 -43.7 -77.001l-85.8491 11.8447c7.83575 36.7 20.7 66.5 38.5 89 17.8 22.7 43.8 40.2 77.7 52.3 33.8 12.2 73 18.3 117.7 18.3 44.3 0 80.2 -5.3 107.8 -15.7 27.7 -10.5 48 -23.5 61.2 -39.3 13 -15.8 22 -35.7 27.3 -59.8 2.8 -15 4.3 -42 4.3 -80.9897l0 -117.172c0 -81.8 1.8 -133.5 5.7 -155 3.7 -21.7 11.2 -42.5 22.2 -62.3418l-91.8221 0c-9.0101 18.2 -15 39.5 -17.5 64.0021zm-7.34981 196.339c-31.9909 -13.2 -79.8 -24.2 -143.5 -33.3 -36.2 -5.2 -61.8 -11 -76.7 -17.5 -15 -6.5 -26.7 -16 -34.7 -28.7 -8.2 -12.5 -12.3 -26.3 -12.3 -41.7 0 -23.5 9 -43 26.7 -58.7 17.7 -15.5 43.7 -23.3 77.8 -23.3 33.8 0 64 7.3 90.3 22.2 26.3 14.8 45.8 35.2 58.2 60.8 9.5 19.8 14.2 49.2 14.2 87.8333l0 32.3351zm-258.823 359.817l0 100 91.8 0 0 -100 -91.8 0zm182.004 0l0 100 91.8 0 0 -100 -91.8 0z"/></glyph><glyph unicode="&#227;" horiz-adv-x="556"><path d="M404.341 64.0021c-32.6793 -27.7 -64 -47.2 -94 -58.7 -30.2 -11.3 -62.5 -17 -97 -17 -57 0 -100.7 13.8 -131.3 41.7 -30.5 27.8 -45.8 63.5 -45.8 106.7 0 25.5 5.7 48.7 17.3 69.7 11.5 21 26.7 37.8 45.3 50.5 18.8 12.7 39.8 22.3 63.3 28.8 17.2 4.5 43.2 9 78 13.2 71 8.5 123.3 18.5 156.8 30.3 0.3 12 0.5 19.7 0.5 22.8 0 35.8 -8.3 61.2 -25 75.7 -22.3 20 -55.8 29.8 -100 29.8 -41.3 0 -71.8 -7.1 -91.7 -21.7 -19.7 -14.5 -34.2 -40.2 -43.7 -77.001l-85.8491 11.8447c7.83575 36.7 20.7 66.5 38.5 89 17.8 22.7 43.8 40.2 77.7 52.3 33.8 12.2 73 18.3 117.7 18.3 44.3 0 80.2 -5.3 107.8 -15.7 27.7 -10.5 48 -23.5 61.2 -39.3 13 -15.8 22 -35.7 27.3 -59.8 2.8 -15 4.3 -42 4.3 -80.9897l0 -117.172c0 -81.8 1.8 -133.5 5.7 -155 3.7 -21.7 11.2 -42.5 22.2 -62.3418l-91.8221 0c-9.0101 18.2 -15 39.5 -17.5 64.0021zm-7.34981 196.339c-31.9909 -13.2 -79.8 -24.2 -143.5 -33.3 -36.2 -5.2 -61.8 -11 -76.7 -17.5 -15 -6.5 -26.7 -16 -34.7 -28.7 -8.2 -12.5 -12.3 -26.3 -12.3 -41.7 0 -23.5 9 -43 26.7 -58.7 17.7 -15.5 43.7 -23.3 77.8 -23.3 33.8 0 64 7.3 90.3 22.2 26.3 14.8 45.8 35.2 58.2 60.8 9.5 19.8 14.2 49.2 14.2 87.8333l0 32.3351zm-285.165 334.832c-0.323959 33.8 8.8 61 27.8 81.2 18.5 20.2 42.2 30.2 71.2 30.2 20.2 0 47.7 -8.7 82.5 -26.3 19.3 -9.8 34.5 -14.7 46 -14.7 10.3 0 18.3 2.8 23.8 8.5 5.7 5.8 9.5 17 11.8 33.9954l63.3339 0c-0.830144 -37.2 -10.3 -65 -28 -83.5 -17.7 -18.5 -40.3 -27.8 -67.7 -27.8 -20.5 0 -47.5 9.2 -81 27.3 -21.8 11.7 -37.8 17.7 -47.8 17.7 -11.2 0 -20 -4 -26.8 -11.8 -7.2 -7.8 -10.7 -19.3 -10.3 -34.6636l-64.8323 0z"/></glyph><glyph unicode="&#226;" horiz-adv-x="556"><path d="M404.341 64.0021c-32.6793 -27.7 -64 -47.2 -94 -58.7 -30.2 -11.3 -62.5 -17 -97 -17 -57 0 -100.7 13.8 -131.3 41.7 -30.5 27.8 -45.8 63.5 -45.8 106.7 0 25.5 5.7 48.7 17.3 69.7 11.5 21 26.7 37.8 45.3 50.5 18.8 12.7 39.8 22.3 63.3 28.8 17.2 4.5 43.2 9 78 13.2 71 8.5 123.3 18.5 156.8 30.3 0.3 12 0.5 19.7 0.5 22.8 0 35.8 -8.3 61.2 -25 75.7 -22.3 20 -55.8 29.8 -100 29.8 -41.3 0 -71.8 -7.1 -91.7 -21.7 -19.7 -14.5 -34.2 -40.2 -43.7 -77.001l-85.8491 11.8447c7.83575 36.7 20.7 66.5 38.5 89 17.8 22.7 43.8 40.2 77.7 52.3 33.8 12.2 73 18.3 117.7 18.3 44.3 0 80.2 -5.3 107.8 -15.7 27.7 -10.5 48 -23.5 61.2 -39.3 13 -15.8 22 -35.7 27.3 -59.8 2.8 -15 4.3 -42 4.3 -80.9897l0 -117.172c0 -81.8 1.8 -133.5 5.7 -155 3.7 -21.7 11.2 -42.5 22.2 -62.3418l-91.8221 0c-9.0101 18.2 -15 39.5 -17.5 64.0021zm-7.34981 196.339c-31.9909 -13.2 -79.8 -24.2 -143.5 -33.3 -36.2 -5.2 -61.8 -11 -76.7 -17.5 -15 -6.5 -26.7 -16 -34.7 -28.7 -8.2 -12.5 -12.3 -26.3 -12.3 -41.7 0 -23.5 9 -43 26.7 -58.7 17.7 -15.5 43.7 -23.3 77.8 -23.3 33.8 0 64 7.3 90.3 22.2 26.3 14.8 45.8 35.2 58.2 60.8 9.5 19.8 14.2 49.2 14.2 87.8333l0 32.3351zm-120.654 405.657l-55.1742 -83 -100.7 0 105.5 136.7 93.8 0 109.8 -136.7 -99.7 0 -53.7 82.9942z"/></glyph><glyph unicode="&#225;" horiz-adv-x="556"><path d="M404.341 64.0021c-32.6793 -27.7 -64 -47.2 -94 -58.7 -30.2 -11.3 -62.5 -17 -97 -17 -57 0 -100.7 13.8 -131.3 41.7 -30.5 27.8 -45.8 63.5 -45.8 106.7 0 25.5 5.7 48.7 17.3 69.7 11.5 21 26.7 37.8 45.3 50.5 18.8 12.7 39.8 22.3 63.3 28.8 17.2 4.5 43.2 9 78 13.2 71 8.5 123.3 18.5 156.8 30.3 0.3 12 0.5 19.7 0.5 22.8 0 35.8 -8.3 61.2 -25 75.7 -22.3 20 -55.8 29.8 -100 29.8 -41.3 0 -71.8 -7.1 -91.7 -21.7 -19.7 -14.5 -34.2 -40.2 -43.7 -77.001l-85.8491 11.8447c7.83575 36.7 20.7 66.5 38.5 89 17.8 22.7 43.8 40.2 77.7 52.3 33.8 12.2 73 18.3 117.7 18.3 44.3 0 80.2 -5.3 107.8 -15.7 27.7 -10.5 48 -23.5 61.2 -39.3 13 -15.8 22 -35.7 27.3 -59.8 2.8 -15 4.3 -42 4.3 -80.9897l0 -117.172c0 -81.8 1.8 -133.5 5.7 -155 3.7 -21.7 11.2 -42.5 22.2 -62.3418l-91.8221 0c-9.0101 18.2 -15 39.5 -17.5 64.0021zm-7.34981 196.339c-31.9909 -13.2 -79.8 -24.2 -143.5 -33.3 -36.2 -5.2 -61.8 -11 -76.7 -17.5 -15 -6.5 -26.7 -16 -34.7 -28.7 -8.2 -12.5 -12.3 -26.3 -12.3 -41.7 0 -23.5 9 -43 26.7 -58.7 17.7 -15.5 43.7 -23.3 77.8 -23.3 33.8 0 64 7.3 90.3 22.2 26.3 14.8 45.8 35.2 58.2 60.8 9.5 19.8 14.2 49.2 14.2 87.8333l0 32.3351zm-170.989 322.663l64.9942 136.7 115.2 0 -107.3 -136.7 -72.8 0z"/></glyph><glyph unicode="&#224;" horiz-adv-x="556"><path d="M404.341 64.0021c-32.6793 -27.7 -64 -47.2 -94 -58.7 -30.2 -11.3 -62.5 -17 -97 -17 -57 0 -100.7 13.8 -131.3 41.7 -30.5 27.8 -45.8 63.5 -45.8 106.7 0 25.5 5.7 48.7 17.3 69.7 11.5 21 26.7 37.8 45.3 50.5 18.8 12.7 39.8 22.3 63.3 28.8 17.2 4.5 43.2 9 78 13.2 71 8.5 123.3 18.5 156.8 30.3 0.3 12 0.5 19.7 0.5 22.8 0 35.8 -8.3 61.2 -25 75.7 -22.3 20 -55.8 29.8 -100 29.8 -41.3 0 -71.8 -7.1 -91.7 -21.7 -19.7 -14.5 -34.2 -40.2 -43.7 -77.001l-85.8491 11.8447c7.83575 36.7 20.7 66.5 38.5 89 17.8 22.7 43.8 40.2 77.7 52.3 33.8 12.2 73 18.3 117.7 18.3 44.3 0 80.2 -5.3 107.8 -15.7 27.7 -10.5 48 -23.5 61.2 -39.3 13 -15.8 22 -35.7 27.3 -59.8 2.8 -15 4.3 -42 4.3 -80.9897l0 -117.172c0 -81.8 1.8 -133.5 5.7 -155 3.7 -21.7 11.2 -42.5 22.2 -62.3418l-91.8221 0c-9.0101 18.2 -15 39.5 -17.5 64.0021zm-7.34981 196.339c-31.9909 -13.2 -79.8 -24.2 -143.5 -33.3 -36.2 -5.2 -61.8 -11 -76.7 -17.5 -15 -6.5 -26.7 -16 -34.7 -28.7 -8.2 -12.5 -12.3 -26.3 -12.3 -41.7 0 -23.5 9 -43 26.7 -58.7 17.7 -15.5 43.7 -23.3 77.8 -23.3 33.8 0 64 7.3 90.3 22.2 26.3 14.8 45.8 35.2 58.2 60.8 9.5 19.8 14.2 49.2 14.2 87.8333l0 32.3351zm-47.9864 322.663l-70.6635 0 -112.8 136.7 117.7 0 65.8 -136.67z"/></glyph><glyph unicode="&#255;" horiz-adv-x="500"><path d="M61.9976 -199.66l-9.84025 82.488c19.3363 -5.2 36 -7.8 50.3 -7.8 19.5 0 35.2 3.3 46.8 9.8 11.8 6.5 21.3 15.5 28.8 27.3 5.7 8.7 14.5 30.5 26.8 65.3 1.7 5 4.3 12 7.8 21.5028l-196.683 519.5 94.7 0 108 -300.168c13.829 -38.2 26.5 -78.2 37.5 -120.2 10.2 40.3 22.2 79.7 36.2 118.164l110.834 302.2 87.8 0 -197.2 -527.324c-21.1586 -57 -37.7 -96.2 -49.3 -117.7 -15.7 -29 -33.5 -50.2 -53.7 -63.7 -20.3 -13.5 -44.3 -20.3 -72.3 -20.3 -17 0 -35.8 3.7 -56.7 10.8324zm56.6725 819.818l0 100 91.8 0 0 -100 -91.8 0zm182.004 0l0 100 91.8 0 0 -100 -91.8 0z"/></glyph><glyph unicode="&#254;" horiz-adv-x="556"><path d="M66.0066 -198.668l0 914.5 87.8 0 0 -251.999c23.6692 25.2 44.5 41.7 62.5 49.8 23.3 11 50.2 16.7 80 16.7 44.3 0 83.3 -11.5 117.2 -34.2 34 -22.8 59.5 -55 76.7 -96.5 17.3 -41.5 26 -87 26 -136.5 0 -53.4 -9.5 -101.2 -28.7 -143.5 -19 -42.3 -46.7 -74.8 -83 -97.5 -36.3 -22.5 -74.3 -33.8 -114 -33.8 -27 0 -52 5.3 -75.2 16 -17.5 8.5 -38.2 25 -61.5 49.343l0 -252.3 -87.8 0zm79.4914 455c0 -66.7 13.5 -116 40.5 -148 27 -31.8 59.8 -47.8 98.2 -47.8 39 0 72.5 16.5 100.3 49.7 27.8 33 41.8 84.2 41.8 153.5 0 66.2 -13.7 115.5 -40.8 148.5 -27.2 32.8 -59.6 49.3 -97.3 49.3 -37.5 0 -70.7 -17.5 -99.5 -52.5 -28.8 -35 -43.2 -86 -43.2 -152.666z"/></glyph><glyph unicode="&#253;" horiz-adv-x="500"><path d="M61.9976 -199.66l-9.84025 82.488c19.3363 -5.2 36 -7.8 50.3 -7.8 19.5 0 35.2 3.3 46.8 9.8 11.8 6.5 21.3 15.5 28.8 27.3 5.7 8.7 14.5 30.5 26.8 65.3 1.7 5 4.3 12 7.8 21.5028l-196.683 519.5 94.7 0 108 -300.168c13.829 -38.2 26.5 -78.2 37.5 -120.2 10.2 40.3 22.2 79.7 36.2 118.164l110.834 302.2 87.8 0 -197.2 -527.324c-21.1586 -57 -37.7 -96.2 -49.3 -117.7 -15.7 -29 -33.5 -50.2 -53.7 -63.7 -20.3 -13.5 -44.3 -20.3 -72.3 -20.3 -17 0 -35.8 3.7 -56.7 10.8324zm143.008 782.664l64.9942 136.7 115.2 0 -107.3 -136.7 -72.8 0z"/></glyph><glyph unicode="&#252;" horiz-adv-x="556"><path d="M405.839 0l0 76.1708c-40.5151 -58.7 -95.3 -87.8 -164.7 -87.8 -30.5 0 -59.2 5.8 -85.7 17.5 -26.5 11.7 -46.2 26.5 -59 44.2 -13 17.8 -22 39.5 -27.2 65.2 -3.5 17.3 -5.3 44.7 -5.3 82.164l0 321.2 87.8 0 0 -287.493c0 -46 1.8 -76.8 5.3 -92.8 5.7 -23.2 17.3 -41.2 35.2 -54.5 18 -13.2 40.2 -19.7 66.5 -19.7 26.3 0 51 6.7 74.2 20.2 23.2 13.5 39.5 32 49 55.2 9.7 23.3 14.5 57.2 14.5 101.318l0 277.8 87.8 0 0 -518.5 -78.5 0zm-268.501 620.158l0 100 91.8 0 0 -100 -91.8 0zm182.004 0l0 100 91.8 0 0 -100 -91.8 0z"/></glyph><glyph unicode="&#251;" horiz-adv-x="556"><path d="M405.839 0l0 76.1708c-40.5151 -58.7 -95.3 -87.8 -164.7 -87.8 -30.5 0 -59.2 5.8 -85.7 17.5 -26.5 11.7 -46.2 26.5 -59 44.2 -13 17.8 -22 39.5 -27.2 65.2 -3.5 17.3 -5.3 44.7 -5.3 82.164l0 321.2 87.8 0 0 -287.493c0 -46 1.8 -76.8 5.3 -92.8 5.7 -23.2 17.3 -41.2 35.2 -54.5 18 -13.2 40.2 -19.7 66.5 -19.7 26.3 0 51 6.7 74.2 20.2 23.2 13.5 39.5 32 49 55.2 9.7 23.3 14.5 57.2 14.5 101.318l0 277.8 87.8 0 0 -518.5 -78.5 0zm-130.333 665.999l-55.1742 -83 -100.7 0 105.5 136.7 93.8 0 109.8 -136.7 -99.7 0 -53.7 82.9942z"/></glyph><glyph unicode="&#250;" horiz-adv-x="556"><path d="M405.839 0l0 76.1708c-40.5151 -58.7 -95.3 -87.8 -164.7 -87.8 -30.5 0 -59.2 5.8 -85.7 17.5 -26.5 11.7 -46.2 26.5 -59 44.2 -13 17.8 -22 39.5 -27.2 65.2 -3.5 17.3 -5.3 44.7 -5.3 82.164l0 321.2 87.8 0 0 -287.493c0 -46 1.8 -76.8 5.3 -92.8 5.7 -23.2 17.3 -41.2 35.2 -54.5 18 -13.2 40.2 -19.7 66.5 -19.7 26.3 0 51 6.7 74.2 20.2 23.2 13.5 39.5 32 49 55.2 9.7 23.3 14.5 57.2 14.5 101.318l0 277.8 87.8 0 0 -518.5 -78.5 0zm-184.677 583.004l64.9942 136.7 115.2 0 -107.3 -136.7 -72.8 0z"/></glyph><glyph unicode="&#249;" horiz-adv-x="556"><path d="M405.839 0l0 76.1708c-40.5151 -58.7 -95.3 -87.8 -164.7 -87.8 -30.5 0 -59.2 5.8 -85.7 17.5 -26.5 11.7 -46.2 26.5 -59 44.2 -13 17.8 -22 39.5 -27.2 65.2 -3.5 17.3 -5.3 44.7 -5.3 82.164l0 321.2 87.8 0 0 -287.493c0 -46 1.8 -76.8 5.3 -92.8 5.7 -23.2 17.3 -41.2 35.2 -54.5 18 -13.2 40.2 -19.7 66.5 -19.7 26.3 0 51 6.7 74.2 20.2 23.2 13.5 39.5 32 49 55.2 9.7 23.3 14.5 57.2 14.5 101.318l0 277.8 87.8 0 0 -518.5 -78.5 0zm-50.3351 583.004l-70.6635 0 -112.8 136.7 117.7 0 65.8 -136.67z"/></glyph><glyph unicode="&#248;" horiz-adv-x="610"><path d="M448.663 487.841l48.3306 62.5 47 -34.2 -52.3 -67.5049c20.4904 -28 34.5 -53.3 42 -76.2 10.2 -32.5 15.2 -70.3 15.2 -113.6 0 -97.7 -27.5 -169.5 -82.5 -215.4 -44.7 -36.8 -98.3 -55.2 -161.2 -55.2 -51.7 0 -97.5 13 -137.2 38.9965l-51.3272 -65.8 -45.8 34.7 52.7 68.821c-19.1743 22 -32.8 44.2 -41 66.3 -13 35.5 -19.5 75.7 -19.5 120.7 0 98 23.8 168.8 71.8 212.7 47.8 43.7 104 65.7 168.3 65.7 26.8 0 51.3 -3.5 73.8 -10.3 22.3 -6.8 46.3 -17.5 71.7 -32.1529zm-49.3227 -64.5083c-29.5005 22.8 -60.7 34.2 -93.2 34.2 -43.3 0 -79.7 -16.5 -108.8 -49.8 -29.3 -33.2 -44 -82.7 -44 -148.3 0 -48.8 8.5 -89.7 25.3 -122.659l220.677 286.663zm36.6681 -47.3385l-219.178 -284.659c25.3295 -20.5 54 -30.8 85.8 -30.8 45.3 0 82.7 16.7 112.2 49.8 29.5 33.2 44.2 83 44.2 149.5 0 24.7 -2 46.3 -5.9 64.8 -2.7 13.7 -8.3 30.8 -17.1 51.3272z"/></glyph><glyph unicode="&#247;" horiz-adv-x="548"><path d="M224.159 450.161l0 100.2 100 0 0 -100.2 -100 0zm286.501 -138.168l-472.494 0 0 82 472.5 0 0 -82.0021zm-286.501 -156.168l0 100 100 0 0 -100 -100 0z"/></glyph><glyph unicode="&#246;" horiz-adv-x="556"><path d="M33.1653 259.329c0 96 26.7 167.2 80.2 213.3 44.5 38.3 98.8 57.7 163 57.7 71.3 0 129.7 -23.3 174.8 -70.2 45.3 -46.7 67.8 -111.2 67.8 -193.5 0 -66.8 -10 -119.3 -30 -157.5 -20 -38.3 -49.2 -68 -87.3 -89.2 -38.3 -21.2 -80 -31.7 -125.3 -31.7 -72.5 0 -131.2 23.2 -176 69.8 -44.8 46.5 -67.2 113.5 -67.2 201.158zm90.344 0c0 -66.5 14.5 -116.2 43.5 -149.2 29 -33.2 65.5 -49.7 109.3 -49.7 43.7 0 80 16.7 109 49.8 28.8 33.2 43.3 83.8 43.3 151.8 0 64.2 -14.5 112.8 -43.7 145.8 -29.2 33 -65.3 49.5 -108.7 49.5 -43.8 0 -80.3 -16.5 -109.3 -49.3 -29 -32.8 -43.5 -82.5 -43.5 -148.839zm15.6513 360.829l0 100 91.8 0 0 -100 -91.8 0zm182.004 0l0 100 91.8 0 0 -100 -91.8 0z"/></glyph><glyph unicode="&#245;" horiz-adv-x="556"><path d="M33.1653 259.329c0 96 26.7 167.2 80.2 213.3 44.5 38.3 98.8 57.7 163 57.7 71.3 0 129.7 -23.3 174.8 -70.2 45.3 -46.7 67.8 -111.2 67.8 -193.5 0 -66.8 -10 -119.3 -30 -157.5 -20 -38.3 -49.2 -68 -87.3 -89.2 -38.3 -21.2 -80 -31.7 -125.3 -31.7 -72.5 0 -131.2 23.2 -176 69.8 -44.8 46.5 -67.2 113.5 -67.2 201.158zm90.344 0c0 -66.5 14.5 -116.2 43.5 -149.2 29 -33.2 65.5 -49.7 109.3 -49.7 43.7 0 80 16.7 109 49.8 28.8 33.2 43.3 83.8 43.3 151.8 0 64.2 -14.5 112.8 -43.7 145.8 -29.2 33 -65.3 49.5 -108.7 49.5 -43.8 0 -80.3 -16.5 -109.3 -49.3 -29 -32.8 -43.5 -82.5 -43.5 -148.839zm-10.6704 335.844c-0.344206 33.8 8.8 61 27.8 81.2 18.5 20.2 42.2 30.2 71.2 30.2 20.2 0 47.7 -8.7 82.5 -26.3 19.3 -9.8 34.5 -14.7 46 -14.7 10.3 0 18.3 2.8 23.8 8.5 5.7 5.8 9.5 17 11.8 33.9954l63.3339 0c-0.830144 -37.2 -10.3 -65 -28 -83.5 -17.7 -18.5 -40.3 -27.8 -67.7 -27.8 -20.5 0 -47.5 9.2 -81 27.3 -21.8 11.7 -37.8 17.7 -47.8 17.7 -11.2 0 -20 -4 -26.8 -11.8 -7.2 -7.8 -10.7 -19.3 -10.3 -34.6636l-64.8323 0z"/></glyph><glyph unicode="&#244;" horiz-adv-x="556"><path d="M33.1653 259.329c0 96 26.7 167.2 80.2 213.3 44.5 38.3 98.8 57.7 163 57.7 71.3 0 129.7 -23.3 174.8 -70.2 45.3 -46.7 67.8 -111.2 67.8 -193.5 0 -66.8 -10 -119.3 -30 -157.5 -20 -38.3 -49.2 -68 -87.3 -89.2 -38.3 -21.2 -80 -31.7 -125.3 -31.7 -72.5 0 -131.2 23.2 -176 69.8 -44.8 46.5 -67.2 113.5 -67.2 201.158zm90.344 0c0 -66.5 14.5 -116.2 43.5 -149.2 29 -33.2 65.5 -49.7 109.3 -49.7 43.7 0 80 16.7 109 49.8 28.8 33.2 43.3 83.8 43.3 151.8 0 64.2 -14.5 112.8 -43.7 145.8 -29.2 33 -65.3 49.5 -108.7 49.5 -43.8 0 -80.3 -16.5 -109.3 -49.3 -29 -32.8 -43.5 -82.5 -43.5 -148.839zm153.82 406.67l-55.154 -83 -100.7 0 105.5 136.7 93.8 0 109.8 -136.7 -99.7 0 -53.7 82.9942z"/></glyph><glyph unicode="&#243;" horiz-adv-x="556"><path d="M33.1653 259.329c0 96 26.7 167.2 80.2 213.3 44.5 38.3 98.8 57.7 163 57.7 71.3 0 129.7 -23.3 174.8 -70.2 45.3 -46.7 67.8 -111.2 67.8 -193.5 0 -66.8 -10 -119.3 -30 -157.5 -20 -38.3 -49.2 -68 -87.3 -89.2 -38.3 -21.2 -80 -31.7 -125.3 -31.7 -72.5 0 -131.2 23.2 -176 69.8 -44.8 46.5 -67.2 113.5 -67.2 201.158zm90.344 0c0 -66.5 14.5 -116.2 43.5 -149.2 29 -33.2 65.5 -49.7 109.3 -49.7 43.7 0 80 16.7 109 49.8 28.8 33.2 43.3 83.8 43.3 151.8 0 64.2 -14.5 112.8 -43.7 145.8 -29.2 33 -65.3 49.5 -108.7 49.5 -43.8 0 -80.3 -16.5 -109.3 -49.3 -29 -32.8 -43.5 -82.5 -43.5 -148.839zm103.991 323.675l64.9942 136.7 115.2 0 -107.3 -136.7 -72.8 0z"/></glyph><glyph unicode="&#242;" horiz-adv-x="556"><path d="M33.1653 259.329c0 96 26.7 167.2 80.2 213.3 44.5 38.3 98.8 57.7 163 57.7 71.3 0 129.7 -23.3 174.8 -70.2 45.3 -46.7 67.8 -111.2 67.8 -193.5 0 -66.8 -10 -119.3 -30 -157.5 -20 -38.3 -49.2 -68 -87.3 -89.2 -38.3 -21.2 -80 -31.7 -125.3 -31.7 -72.5 0 -131.2 23.2 -176 69.8 -44.8 46.5 -67.2 113.5 -67.2 201.158zm90.344 0c0 -66.5 14.5 -116.2 43.5 -149.2 29 -33.2 65.5 -49.7 109.3 -49.7 43.7 0 80 16.7 109 49.8 28.8 33.2 43.3 83.8 43.3 151.8 0 64.2 -14.5 112.8 -43.7 145.8 -29.2 33 -65.3 49.5 -108.7 49.5 -43.8 0 -80.3 -16.5 -109.3 -49.3 -29 -32.8 -43.5 -82.5 -43.5 -148.839zm211.829 323.675l-70.6635 0 -112.8 136.7 117.7 0 65.8 -136.67z"/></glyph><glyph unicode="&#241;" horiz-adv-x="556"><path d="M66.0066 0l0 518.5 79 0 0 -73.6601c38.1664 57 93.2 85.5 165 85.5 31.3 0 60 -5.7 86.2 -16.8 26.3 -11.3 45.8 -26 58.8 -44.3 13.2 -18.2 22.2 -39.8 27.5 -64.8 3.2 -16.3 4.8 -44.8 4.8 -85.5049l0 -318.8 -88 0 0 315.495c0 35.7 -3.3 62.5 -10.2 80.3 -6.8 17.7 -19 31.8 -36.3 42.3 -17.5 10.7 -37.8 16 -61.3 16 -37.5 0 -69.7 -12 -97 -35.7 -27.2 -23.8 -40.7 -68.8 -40.7 -135.334l0 -283.2 -87.8 0zm61.9976 595.173c-0.344206 33.8 8.8 61 27.8 81.2 18.5 20.2 42.2 30.2 71.2 30.2 20.2 0 47.7 -8.7 82.5 -26.3 19.3 -9.8 34.5 -14.7 46 -14.7 10.3 0 18.3 2.8 23.8 8.5 5.7 5.8 9.5 17 11.8 33.9954l63.3339 0c-0.830144 -37.2 -10.3 -65 -28 -83.5 -17.7 -18.5 -40.3 -27.8 -67.7 -27.8 -20.5 0 -47.5 9.2 -81 27.3 -21.8 11.7 -37.8 17.7 -47.8 17.7 -11.2 0 -20 -4 -26.8 -11.8 -7.2 -7.8 -10.7 -19.3 -10.3 -34.6636l-64.8323 0z"/></glyph><glyph unicode="&#240;" horiz-adv-x="556"><path d="M150.337 715.827l105.995 0c23.5073 -17.7 43.8 -34.2 61 -49.8289l104.497 49.8 22 -49.8 -84 -40.4948c104.153 -119.8 156.3 -243.5 156.3 -371.2 0 -82.3 -22.7 -147.3 -68 -195 -45.2 -47.7 -102.8 -71.5 -172.9 -71.5 -83 0 -147.7 31.5 -194.3 94.7 -30.2 41.3 -45.3 98 -45.3 170 0 84.8 21 150.5 63 196.7 42 46.3 94.5 69.3 157.7 69.3 18.8 0 35.5 -1.8 49.8 -5.8 14.3 -3.8 32.2 -11.5 53.7 -23 -11.7 23.8 -22 42.3 -30.7 55.5 -8.8 13.2 -21.7 29.3 -38.7 48.6748l-134.18 -62.2 -21.5 50.3 116.7 53.3317c-31.667 29.2 -65.3 56 -101.2 80.5038zm274.494 -457.491c0 62.5 -14.8 110.2 -44.2 143.3 -29.5 33 -65.7 49.5 -108.7 49.5 -42.3 0 -77.3 -16.5 -105 -49.5 -27.7 -33.2 -41.5 -83.7 -41.5 -151.7 0 -63.2 14.2 -110.7 42.7 -142.5 28.5 -32 64.2 -48 106.7 -48 41.7 0 77.2 16.8 106.3 50.7 29 33.7 43.7 83 43.7 148.171z"/></glyph></font>
</defs>
</svg>
